<?xml version="1.0" standalone="no"?>
<!DOCTYPE svg PUBLIC "-//W3C//DTD SVG 1.1//EN" "http://www.w3.org/Graphics/SVG/1.1/DTD/svg11.dtd" >
<svg xmlns="http://www.w3.org/2000/svg">
<metadata></metadata>
<defs>
<font id="MysteryQuestRegular" horiz-adv-x="1268" >
<font-face units-per-em="2048" ascent="1638" descent="-410" />
<missing-glyph horiz-adv-x="614" />
<glyph horiz-adv-x="0" />
<glyph horiz-adv-x="2048" />
<glyph unicode=" "  horiz-adv-x="614" />
<glyph unicode="&#x09;" horiz-adv-x="614" />
<glyph unicode="&#xa0;" horiz-adv-x="614" />
<glyph unicode="!" horiz-adv-x="390" d="M62 1394q85 -8 213 30q27 8 43 8q-41 -49 -72 -296q-32 -253 -20 -502q4 -126 6 -205t6 -123t11 -62t23 -22q-73 11 -166 -6q32 53 32 126.5t-5 140.5t-10 143t-8 153t-6 158t-7 160t-9 142q-11 139 -31 155zM104 7q-10 35 10 72t61 53t79 10t53 -41t-1 -72t-63 -57 t-88 -10t-51 45z" />
<glyph unicode="&#x22;" horiz-adv-x="496" d="M52 1404l110 8q14 -56 14 -221.5t16 -312.5l-128 -8q23 247 6 430q-6 64 -18 104zM290 1416q20 4 49 0q58 -8 75 -4q-42 -191 -30 -414q4 -72 16 -132l-106 10q-9 52 -3 196q10 280 -1 344z" />
<glyph unicode="#" horiz-adv-x="1274" d="M20 414q43 122 38 164q54 -18 238 -18q40 126 56 193t25 102t19 75q-247 -24 -302 -38q62 93 62 168q87 -12 274 -8q20 76 40 150t33 132q29 128 13 136q17 -10 76 -10q108 0 144 4q-46 -76 -160 -408q56 0 99 3t84 6t83 5q14 54 30 111t34 122t36 129q20 -4 46 -4 q79 0 152 14q-68 -144 -140 -360q179 19 222 44l-52 -166q-33 3 -212 -2q-62 -196 -110 -374q191 19 278 38l-22 -136q-26 -2 -104 -6t-182 -12q-76 -313 -76 -422q-138 0 -198 -20q40 74 81 219t61 217q-74 -4 -150 -8t-148 -8q-74 -273 -100 -412q-80 0 -115 -5t-57 -7 q61 156 144 416q-178 -13 -240 -24zM420 560q146 4 294 12q28 108 53 208t45 172q-68 -4 -137 -7t-139 -7q-28 -92 -58 -188t-58 -190z" />
<glyph unicode="$" horiz-adv-x="844" d="M0 68q63 151 100 418q10 72 12 120l64 -22q-57 -140 12 -278q41 -81 118 -109q99 -35 202 43q115 86 76 225q-39 142 -210 253q-82 56 -140 96t-94 78q-70 74 -70 182q0 101 86 200q91 105 212 120q0 50 -10 130q38 -5 86 16q-10 -85 -10 -146q109 -7 192 -46 q46 -14 73 -3t55 43l48 -16q-54 -84 -96 -355q-12 -77 -18 -147l-50 4q23 176 10.5 255t-41.5 127t-90 65t-110 1t-83 -51q-72 -74 -68 -187q5 -128 180 -268q50 -40 102 -82q106 -84 164 -168q91 -131 26 -286q-42 -100 -155 -156q-57 -28 -133 -36l14 -162l-88 -12 q21 73 8 170q-55 0 -110.5 15t-77.5 19t-42 -2q-60 -14 -88 -88z" />
<glyph unicode="%" horiz-adv-x="1218" d="M31 989q-25 85 7 203q32 116 134 213q129 122 286 97q50 -10 85 -35t69 -52t73 -48t90 -20t92 16q106 39 161 129q37 -59 90 -76q-42 -42 -174 -244t-205 -323t-144 -247t-135 -246q-131 -245 -210 -412q-78 97 -182 92q342 529 583 878.5t321 455.5q-40 -28 -81 -54 t-86 -37q-100 -24 -193 47q-59 46 -114 76q63 -106 66 -238q0 -54 -22 -118t-66 -115q-105 -122 -264 -89q-146 29 -181 147zM124 1202q-32 -119 11 -211q42 -91 119 -91q78 0 137 77q56 72 73 171q8 46 4 91t-17 82q-29 81 -79 93q-59 14 -133 -39q-82 -58 -115 -173z M622 278q9 126 102 240q44 54 105 88t115 31t90 -23t65 -59q68 -91 57 -243q-12 -163 -108 -257q-91 -89 -218 -81q-117 8 -171 98q-50 83 -37 206zM714 239q4 -55 21 -97q37 -92 110 -98t127 64t70 203q29 241 -94 255q-115 8 -184 -104q-26 -42 -40 -105t-10 -118z" />
<glyph unicode="&#x26;" horiz-adv-x="1190" d="M1 173q-5 63 12 133q34 140 147 278q44 52 93 113t101 125q-70 120 -109 242t-7 242q31 119 160 181q121 58 229 14q51 -21 84 -72t32 -122t-24 -128t-61 -116t-86 -122t-100 -133q74 -142 160 -259t176 -229q122 122 172 265q54 156 -34 237q-32 28 -82 25t-84 -34 t-45 -74t13 -73q40 -50 78 -40q-10 16 -5 39t31 27t39 -6t16 -26q7 -38 -23 -61t-67 -23t-70 17q-81 41 -73 139q4 76 61 122t138.5 50t148 -56t66.5 -180q0 -72 -44 -160q-74 -148 -174 -260q46 -50 95 -80t121 -66q-93 -19 -165 -80q-21 -18 -31 -36q-20 69 -94 188 q-171 -158 -363 -205q-69 -17 -153 -15t-146 31t-95 77t-38 111zM215 256q3 -68 49 -116q72 -83 221 -35q130 42 259 153q-108 155 -178 252q-86 118 -154 220q-205 -293 -197 -474zM402 954l20 -44q293 405 142 476q-47 24 -104 -9q-26 -15 -49 -40q-123 -133 -9 -383z" />
<glyph unicode="'" horiz-adv-x="274" d="M52 1404l110 8q14 -56 14 -221.5t16 -312.5l-128 -8q23 247 6 430q-6 64 -18 104z" />
<glyph unicode="(" horiz-adv-x="558" d="M134 708q-5 226 132 519q71 152 131.5 233.5t88.5 107.5l30 -30q-158 -322 -210 -624q-18 -104 -18 -192q0 -181 37 -317q61 -224 191 -493l-74 -38q-158 244 -210 370q-94 228 -98 464z" />
<glyph unicode=")" horiz-adv-x="568" d="M20 -88q130 269 168 408q60 221 60 402q0 350 -228 816l30 30q40 -38 101 -130t118 -212q137 -288 133 -518q-4 -236 -86 -435q-68 -165 -224 -399z" />
<glyph unicode="*" horiz-adv-x="862" d="M52 1180q40 46 72 109t38 109q18 -24 43 -58t55 -71q68 -83 136 -129q24 297 -22 402q76 -28 132 -42t114 -4q-89 -113 -156 -295q-18 -49 -24 -83q175 105 302 272q6 -86 63 -203q17 -35 37 -65q-121 23 -297 -32q-51 -16 -95 -36q44 -56 123 -126t169 -116 q-18 -12 -45 -27t-55 -33q-65 -42 -92 -80q-55 251 -154 336q-68 -91 -138 -300q-55 74 -108.5 118t-81.5 58q171 69 286 170q-52 45 -125 74q-97 40 -177 52z" />
<glyph unicode="+" horiz-adv-x="1038" d="M81 699q3 59 1 69q66 -12 195 -12h177q0 401 -34 412q36 -4 75 -10t97 18q-14 -48 -21 -199t-7 -219q295 13 362 24q-14 -63 -14 -128q-181 11 -348 8q0 -156 20 -376q-68 0 -156 -22q22 70 24 203t2 193q-252 -10 -364 -48q-12 28 -9 87z" />
<glyph unicode="," horiz-adv-x="332" d="M40 67q0 41 32 73t77 35t76 -24t40 -68t3 -82t-27 -76q-48 -80 -151 -91l-14 50q90 19 108 96q-16 -6 -32 -6q-46 -4 -79 24t-33 69z" />
<glyph unicode="-" horiz-adv-x="950" d="M82 770q94 0 211 -1t226 1q253 5 319 24q0 -12 -5 -28t-9 -34q-11 -47 2 -82q-117 23 -483 4q-166 -9 -247 -32q-8 36 -4 74t-10 74z" />
<glyph unicode="." horiz-adv-x="344" d="M40 65q0 41 32 73t78 35t78 -25t33 -71t-31 -73t-78 -33t-79 25t-33 69z" />
<glyph unicode="/" horiz-adv-x="746" d="M-82 -64q281 567 444 934q110 234 171 377q100 235 105 235q46 -14 102 -14t88 10q-335 -512 -601 -1157q-80 -193 -139 -371h-76q-46 0 -94 -14z" />
<glyph unicode="0" horiz-adv-x="1212" d="M92 738q0 366 162 589q72 99 161 148t179 49t175 -47t151 -136q146 -197 150 -515q0 -315 -90 -540q-77 -193 -220 -272q-76 -42 -171 -42t-183 46t-158 141q-156 212 -156 579zM302 800q-15 -553 151 -703q41 -37 102 -42t114 31t94 99t70 147t46 175q54 292 -4 561 q-49 225 -141 335q-46 55 -98 55q-82 0 -143 -62t-102 -159q-80 -188 -89 -437z" />
<glyph unicode="1" horiz-adv-x="648" d="M-30 1254v2v-2zM-2 1006l10 40q60 -34 125 77t161 353q53 -45 122 -50q-6 -587 32 -1086q11 -146 54 -200q34 -43 124 -60l-4 -44q-87 19 -209 15q-235 -9 -341 -53v58q105 14 138 50q62 66 66 212q2 46 6 125t8 174t9 201t9 206q8 206 4 334q-45 -157 -101.5 -238.5 t-106.5 -111.5t-106 -2z" />
<glyph unicode="2" horiz-adv-x="1000" d="M40 1094q0 60 27 134t77 138q117 150 280 150q221 0 339 -120q107 -109 107 -302q0 -304 -215 -586q-61 -80 -125 -157t-125 -155t-109 -164q64 34 165 50t191 8t132 -4t72 19t52 38t50 57q-17 -215 -50 -276q-454 145 -710 -20q-19 34 -44 42q24 74 75 151t112 159 t125 174t117 196q121 237 121 486q0 129 -78 213q-85 92 -220 77q-125 -14 -201 -126q-59 -88 -59 -186q0 -92 62 -162q74 -84 204 -80q80 0 121 68q31 51 31 93.5t-8 71.5t-27 53q-45 57 -129 50q-46 -4 -67 -38t-21 -66t21 -59t47 -27q36 0 58 28q-24 -6 -38 28 q-4 16 6 35t35 19t38 -19t13 -35t-5 -33t-17 -33q-28 -38 -65 -38t-59 13t-39 34q-35 43 -35 78t9 58t27 44q42 49 105 49t104 -23t69 -58q57 -71 48 -161q-8 -87 -72 -145q-70 -63 -163 -63t-158 27t-110 72q-91 91 -91 223z" />
<glyph unicode="3" horiz-adv-x="1014" d="M30 1536q68 12 170 7t220 -9q307 -10 486 38l36 -170q-118 -99 -362 -412q-64 -82 -106 -144q56 16 134 13t147 -43t118 -129t49 -255.5t-101 -307.5q-123 -172 -353 -172q-227 0 -340 129q-90 103 -90 263q0 132 98 215t238 79q123 -4 189 -99q52 -76 47 -145 q-10 -137 -106 -195q-38 -23 -88 -20t-77 19t-45 40q-34 45 -34 107.5t38 93.5t82 34t63 -12t22 -36t-9 -40t-34 -22t-34 5t-17 20q-13 31 17 44q-28 0 -53 -25t-24 -68t30 -79t72 -33t68 19t41 40q34 52 31 92t-13 72t-31 61q-50 69 -149.5 65t-156.5 -70t-53 -174 q5 -117 78 -189q86 -84 240 -69q156 15 248 158q81 125 76 266q-2 72 -30 143t-82 116q-126 105 -306 -5l-40 50q155 185 309 443q53 89 95 177q-124 18 -235 24t-197 -27q-186 -71 -222 -369l-50 20q36 198 20 361q-6 61 -24 105z" />
<glyph unicode="4" horiz-adv-x="1100" d="M40 690q73 69 116 134q132 206 276 552q66 159 72 199.5t2 52.5q110 -28 200 -34q-8 -144 -8 -324t4 -270q-2 -74 4 -149t10 -147l30 2q125 4 178 83q38 57 38 135l40 -2q-12 -108 -12 -236.5t28 -247.5l-42 -8q-14 56 -28 96t-39 64q-47 46 -187 38q10 -102 18 -189 t15 -165t18 -134t32 -89t56 -51t93 -34l6 -42q-104 31 -285 8q-176 -22 -263 -76l-14 42q140 118 162 270q14 98 14 220t-4 226q-74 -8 -131 -14t-112 -16q-103 -19 -253 -60zM260 666q200 24 310 30q-2 90 -5 183t-5 182t-5 167t-5 138q-229 -498 -290 -700z" />
<glyph unicode="5" horiz-adv-x="1024" d="M40 1482q386 -9 549 12.5t267 51.5q-6 -148 -14 -281t2 -215l-42 -10q-20 202 -72 283q-98 153 -406 47q-58 -20 -94 -42q-16 -232 -16 -359t6 -177q130 76 231 101t219 11t195 -126t77 -292q0 -237 -101 -389q-124 -188 -379 -173q-192 11 -290 132q-79 98 -74 230 q2 50 30 105t73 98q107 102 229 91q115 -10 165 -86q31 -47 31 -122q0 -58 -37 -109t-72 -75t-77 -23t-66 16t-37 37q-26 44 -16.5 91t43.5 77t60 29t38 -12t15 -25q7 -30 -13 -50q-20 -16 -44 -8t-22 34q-40 -22 -40 -62t26 -61t51 -22t48 10t42 33q45 52 44 112t-19 87 t-43 41q-76 43 -178 4q-82 -31 -126 -113q-23 -43 -23 -102t26 -109t71 -86q98 -78 239 -66q138 12 214 137q69 114 77.5 292.5t-39.5 282.5q-75 162 -253 101q-123 -42 -237 -131q-54 -42 -86 -80l-126 76l8 72t7 84t3 112t-2 154q0 224 -42 362zM146 1254v2v-2z" />
<glyph unicode="6" horiz-adv-x="1000" d="M62 598q4 208 98 430q92 218 236 350q154 142 316 130q126 -11 165 -109q33 -85 -21 -189q-43 -78 -118 -100q-73 -21 -132 34q-18 18 -23 50q-9 57 14 95.5t66 54.5t70 1t35 -32t6 -34t-12 -30t-33 -18t-39 18t2 47q-26 0 -43 -24t-17 -51t26 -48t66 -16t74 41t34 96 t-28 98t-80 38q-189 0 -343 -235q-139 -211 -191 -507q104 199 282 260q70 24 149 13t132 -58t89 -113q126 -231 46 -511q-66 -232 -218 -313q-56 -30 -145 -31t-179 43t-154 129q-138 183 -130 491zM208 416q19 -180 118 -295q91 -105 194 -101q48 2 94 40t79 104 q76 152 53 354q-22 195 -115 286q-78 76 -173 59q-40 -7 -86 -42t-85 -93q-97 -144 -79 -312z" />
<glyph unicode="7" horiz-adv-x="826" d="M20 1544q311 -99 634 -59q104 13 192 43q-175 -452 -321 -1096q-73 -324 11 -366q20 -10 50 -14l-6 -52q-229 15 -392 -23q-56 -13 -88 -31l-16 46q46 28 76 46t54 49q47 61 87.5 186t70.5 209t64 178t70 194t71 195q49 133 121 331q-227 45 -428 -8q-42 -12 -70 -28 t-49 -53q-41 -72 -71 -283l-52 2q26 192 17 330t-25 204z" />
<glyph unicode="8" horiz-adv-x="1064" d="M46 504q15 150 104 244q72 75 188 108q-189 61 -225 232q-13 62 1 162t61 172t107 113q101 69 219.5 70t203.5 -37t143 -100t87 -142t21 -160q-10 -124 -80 -212t-182 -122q223 -85 277 -293q21 -81 6 -201t-67 -204t-123 -131q-187 -124 -454 -26q-187 68 -264 266 q-41 105 -23 261zM213 366q3 -76 28 -145q58 -160 207 -189q157 -31 257 76q91 97 125 290q26 163 -62 274q-75 95 -158.5 111.5t-144.5 -0.5t-109 -56t-82 -96t-49 -123t-12 -142zM224 1219q-8 -75 13 -139t62 -110t84 -66t96 -20t106 18q115 39 185 140q70 104 63 228 q-6 118 -75 182q-26 24 -83 42t-125 16t-139 -34t-125 -107t-62 -150z" />
<glyph unicode="9" horiz-adv-x="946" d="M32 1096q-15 204 118 367q58 71 134 114t171 50t177 -44q161 -100 211.5 -353t-27.5 -556.5t-294 -527.5q-110 -114 -254 -168q-12 32 -19 60t-15 54q-18 57 -58 84q92 -12 198 60t194 205t144 314t52 383q-31 -169 -73.5 -251.5t-91.5 -126.5t-128 -55t-157 8t-138 69 q-128 107 -144 314zM200 1108q-4 -80 14 -144t56 -106t90 -52q106 -20 203 74q141 137 130 381q-6 142 -60 216q-53 73 -150 50q-100 -23 -181 -126q-42 -53 -70 -133t-32 -160z" />
<glyph unicode=":" horiz-adv-x="352" d="M40 556q-4 39 35 73q34 30 82.5 35.5t78.5 -14.5t33 -63t-29 -75t-78 -34q-111 -5 -122 78zM44 65q0 41 32 73t77 35t78 -25t33 -71t-32 -73t-78 -33t-78 25t-32 69z" />
<glyph unicode=";" horiz-adv-x="356" d="M40 67q0 41 32 73t77 35t76 -24t40 -68t3 -82t-27 -76q-48 -80 -151 -91l-14 50q90 19 108 96q-16 -6 -32 -6q-46 -4 -79 24t-33 69zM49 544q-3 32 7 51t26 34t38 24t57 13t65 -16t33 -63t-29 -75t-78 -34t-81 16t-38 50z" />
<glyph unicode="&#x3c;" horiz-adv-x="808" d="M40 680q38 18 93 43t118 55t129 61t126 60t109 52t77 39q-24 -61 -18 -126q-49 -22 -240.5 -96t-227.5 -90q328 -164 490 -190q-14 -62 -14 -87t2 -35q-50 10 -331 153t-313 161z" />
<glyph unicode="=" horiz-adv-x="924" d="M86 786q-10 38 1 67t3 63q254 -42 548 -30q96 4 174 16l-14 -112q-69 -9 -260 -3q-369 10 -452 -1zM92 618q69 16 294 16t408 18l12 -140q-290 28 -569 8q-85 -6 -139 -20z" />
<glyph unicode="&#x3e;" horiz-adv-x="788" d="M72 868q14 56 14 84t-2 38q88 -29 350 -162.5t294 -151.5q-58 -28 -150 -71t-190 -89q-227 -107 -310 -150q25 75 16 124q22 10 84 34t135 53q205 81 249 101q-183 92 -311.5 137t-178.5 53z" />
<glyph unicode="?" horiz-adv-x="970" d="M10 1056q0 84 36 151t100 116q140 107 340 107q199 0 326 -103q122 -99 118 -220t-48 -200t-109 -134q-119 -101 -281 -135q-8 -135 8 -233.5t32 -140.5q-31 8 -87 1q-103 -13 -137 -35q32 178 37 321t1 157q40 -4 109 11t134 60q161 112 151 319q-7 151 -122 213 q-92 50 -220 35q-126 -13 -202 -91q-79 -81 -60 -205q12 -83 100 -133q91 -53 186 -25q73 24 102 85q29 59 9 115q-35 101 -131 96q-54 -4 -83 -27t-33 -59t23 -53t55 -17t48 20q-16 4 -28 19t-4 33t24 24t33 1q42 -12 35 -67q-8 -38 -44 -56t-62 -19t-47 5t-41 19 q-46 30 -47 81.5t44 93.5t121 42q75 0 134 -42q62 -44 66 -105t-13 -106t-54 -78q-82 -73 -221 -69q-141 4 -225 79q-73 65 -73 149zM306 55q-4 45 35 78t88 39t81 -15t34 -67t-30 -80t-81 -36t-86 17t-41 64z" />
<glyph unicode="@" horiz-adv-x="1682" d="M52 742q-4 168 63 316t178 254t249 165t291 59t296 -52t248 -147q223 -202 223 -519q0 -140 -51 -246t-123 -173t-149 -94t-121 -12q-83 28 -128 119q-70 -94 -171 -129q-37 -13 -85 -13t-111 28t-116 84q-123 130 -123 334q0 203 118 340q50 58 108 87t106 29 q124 0 224 -82v24l2 46l236 10l-6 -64q-132 -40 -138 -188v-80q0 -277 64 -387q40 -70 129 -19q108 61 167 228q67 189 -16 389q-90 215 -326 308q-120 47 -278 41q-294 -11 -477 -221q-81 -93 -121 -205t-40 -218t49 -225t143 -219t231 -166t317 -66q131 4 227.5 42 t152.5 88l80 -134q-223 -142 -460 -142q-176 0 -331 66t-272 176t-186 255t-73 313zM576 716q0 -207 103 -284q43 -32 121 -25t119 53t59 98q-10 75 -10 128l6 284q-51 79 -168 76q-98 -4 -161 -83q-73 -90 -69 -247z" />
<glyph unicode="A" horiz-adv-x="1148" d="M-246 740q-1 13 -1 25q0 62 26 107q31 54 79 82t107 33q12 1 24 1q45 0 86 -15q51 -19 87 -62t41 -121q1 -8 1 -16q0 -67 -40 -102q-44 -40 -106 -42h-8q-57 0 -99 26q-45 28 -49 92v9q0 50 29 84q25 29 62 30h4q71 0 79 -67q2 -32 -18 -45t-42 -5t-25 30t7 40 q-42 -9 -42 -52.5t20 -68.5q19 -23 56 -23h6q42 2 59 16t27 32q16 29 16 68q0 80 -75 124q-31 18 -84 21h-14q-44 0 -73 -16q-34 -19 -54 -49q-36 -54 -36 -108v-10q4 -58 33 -100t86 -69q87 -41 215 -42q58 0 124 9q181 459 181 695q0 100 -33 160q-48 87 -142 91l8 52 q191 -32 330 -32h16q144 2 208 16l2 -32q-66 -20 -82 -35q-26 -24 -26 -56q0 -9 3 -21q11 -46 29 -142t44 -226q194 -969 384 -1077q23 -13 48 -13q22 0 44 10q79 46 84 180l30 6q7 -27 7 -56q0 -56 -25 -122q-18 -48 -54 -85t-87 -43q-19 -2 -39 -2q-33 0 -69 6 q-57 10 -114 58q-133 112 -201 422q-25 125 -40 194q-58 -4 -158 -10t-208 -14q-56 -234 -56 -297q0 -60 12 -86q16 -38 92 -63l-2 -42q-53 12 -131 12q-35 0 -74 -2q-247 -16 -325 -58l-16 68q42 18 71 25t51 20q46 27 84 121q23 50 120 284h-2q-40 -4 -78 -4 q-141 0 -241 51q-142 72 -153 231zM424 578q157 23 322 34q-109 510 -128 690q-16 -64 -40 -148t-50 -179q-64 -235 -104 -397z" />
<glyph unicode="B" horiz-adv-x="1168" d="M-287 1051q0 69 40 152q41 85 135 160q219 175 614 175q168 0 316 -74q84 -42 144 -117q58 -73 58 -184v-7q0 -146 -95 -252q-84 -94 -231 -124q152 -14 265 -102q133 -104 137 -268v-8q0 -121 -59 -225q-61 -107 -186 -171q-158 -81 -376 -81q-169 0 -375 49 q44 79 57 125q36 124 75 587q19 229 19 418q0 77 -3 148q-4 66 -6 109t-6 71q-212 -31 -338 -155q-111 -109 -111 -241q0 -13 1 -26q6 -70 61 -103q44 -27 88 -27q11 0 21 2q54 8 80 29t42 49q24 42 24 89q0 19 -4 39q-11 57 -64 69q-17 4 -31 4q-48 0 -75 -40 q-17 -26 -16 -47q0 -8 2 -15q8 -27 30 -39q2 24 18 41t35 10t25 -22t2 -32q-10 -43 -58 -47q-6 -1 -12 -1q-32 0 -54 18q-46 37 -46 92v9q4 58 58 94q46 30 101 31q6 0 13 -1q132 -6 134 -160q0 -85 -62 -145q-71 -69 -184 -69q-106 0 -160 78q-43 63 -43 135zM326 66 q66 -23 144 -23q17 0 34 1q98 6 183 47t141 119q52 73 52 163v13q-4 98 -32 150t-73 85t-100 49t-113 20q-28 2 -54 2q-80 0 -152 -18q1 -26 1 -56q0 -184 -31 -552zM354 768q23 -3 46 -3q65 0 129 25q87 34 157 98t113 149t43 165t-44 132t-110 82q-93 42 -180 42 q-50 0 -98 -14q-4 -64 -15 -143t-21 -167q-21 -186 -21 -311q0 -29 1 -55z" />
<glyph unicode="C" horiz-adv-x="1204" d="M32 704q8 204 73 362t161 263t211 155q96 42 174 42q16 0 31 -2q90 -10 142 -40t90 -73q68 -76 106 -187q12 -12 26 -12h2q79 0 120 252l56 -6q-113 -428 -113 -651q0 -22 1 -41q-64 25 -122 25q-13 0 -26 -1q1 38 1 75q0 364 -128 505q-57 63 -137 63q-55 0 -122 -30 q-162 -72 -254 -345q-48 -142 -57 -304q-4 -63 -3 -121q0 -90 8 -165q14 -124 56 -229t114 -174q70 -67 176 -67h6q159 11 278 146q60 68 86 196l66 -40q-52 -170 -121 -260t-150 -139q-75 -45 -175 -45h-17q-111 4 -216 61t-184 164q-160 217 -160 563q0 29 1 60z" />
<glyph unicode="D" horiz-adv-x="1252" d="M-204 1092q0 74 46 143t128 122q178 115 458 115q301 0 486 -141q239 -182 246 -597v-13q0 -455 -280 -687q-138 -114 -334 -157q-99 -22 -211 -22q-109 0 -229 21v52q34 -6 65 -6t55 18q52 39 56 174q19 417 19 645q0 49 -1 90q-10 401 -32 507h-19q-129 0 -242 -64 q-149 -85 -149 -224q0 -78 56 -123q51 -41 107 -41h10q61 4 96 44q32 37 32 73v6q-3 39 -15 65t-30 45q-32 34 -68 34q-8 0 -17 -2q-57 -14 -57 -68q0 -11 2 -23q4 -24 24 -38t46 -4q-26 10 -28 37t22 36t42 -7t19 -40t-19 -46t-61 -26h-9q-34 0 -55 26q-23 30 -25 71v6 q0 38 25 73q27 38 68 42q11 1 21 1q28 0 49 -8q29 -11 53 -34q52 -50 60 -123q1 -12 1 -23q0 -62 -41 -111q-53 -62 -143 -66h-10q-42 0 -79 15q-42 17 -73 49q-65 67 -65 184zM439 598q3 -356 15 -446t20 -119t22 -47q249 53 390 291q121 203 121 485q0 55 -5 112 q-25 296 -209 422q-120 82 -302 82h-25q-27 -229 -27 -664v-116z" />
<glyph unicode="E" horiz-adv-x="1236" d="M-316 1194q14 140 152 224q122 74 313 74q64 0 135 -8q134 -16 298 -16q107 0 227 7q125 7 251 29l-2 -244q0 -175 20 -238l-60 -8q0 225 -107 307q-85 66 -274 66q-83 0 -187 -13q-40 -240 -40 -568q57 -13 104 -13q79 0 129 36q81 57 97 209l48 -8q-29 -149 -29 -309 q0 -48 3 -96q4 -79 20 -147l-40 -16q-14 62 -30 115t-49 86q-43 43 -127 43q-54 0 -126 -18q10 -243 26 -448q25 -50 68 -69q84 -37 216 -38h8q126 0 195 34q71 35 110 83q65 80 65 188l58 -6l-26 -412q-707 0 -1040 -74l-12 40q40 16 74 39t57 69q45 90 45 306v36 q-7 396 -15.5 646t-10.5 320q-57 19 -136 19h-8q-84 -1 -159 -30t-128 -88t-53 -153q0 -103 72 -159q57 -44 134 -44q12 0 24 1q84 4 134 65q39 48 39 102q0 12 -2 25q-11 68 -63 102q-29 19 -62 19q-27 0 -58 -13q-28 -12 -52 -40q-21 -25 -21 -53v-7q3 -32 17 -49t33 -23 q12 -4 23 -4q31 0 56 28q-44 0 -44 40q0 28 29 39q33 13 55 -17q12 -16 12 -35q0 -23 -19 -50q-32 -45 -83 -45q-6 0 -12 1q-103 12 -108 117v9q0 45 35 90q39 49 105 55q15 1 29 2q46 0 74 -16q37 -20 58 -51q35 -52 35 -135q0 -71 -55 -128q-67 -69 -195 -69h-4 q-130 1 -194 83q-54 69 -54 166q0 19 2 38z" />
<glyph unicode="F" horiz-adv-x="918" d="M-122 1476l10 52q143 -66 513 -66q344 0 589 44q-38 -247 -38 -342.5t10 -139.5l-40 -6q-28 108 -67 185t-105 120q-75 49 -202 49q-93 0 -214 -26q-22 -352 -22 -526q179 26 256 89q38 31 59 74t39 103l50 -10q-32 -132 -32 -286q0 -51 4 -105q4 -63 8 -133l-42 8 q-7 151 -122 185q-32 10 -75 10q-61 0 -145 -19q4 -198 18 -353t31 -205t41 -81q38 -49 112 -69v-44q-85 12 -178 12q-100 0 -209 -14q-77 -10 -131 -34l-14 42q104 46 146 107q46 67 46 203q0 164 -13 434t-16 340t-5 114q-6 132 -80 203t-182 85z" />
<glyph unicode="G" horiz-adv-x="1226" d="M10 738q2 204 64 355t155 251t200 150t205 50t168 -31t117 -81t76 -113t49 -126t36 -122t38 -99q-143 0 -286 -70q55 184 55 313q0 108 -39 177q-44 75 -157 88q-13 1 -26 1q-83 0 -170 -61q-134 -95 -221 -336q-44 -122 -66 -300q-9 -74 -9 -142q0 -97 18 -182 q31 -146 92 -245t140 -150q76 -49 148 -49h6q75 2 126 26t81 60q52 63 52 149v15q-2 56 -6 102t-31 82q-56 74 -263 110v48q152 -18 242 -18h25q185 8 377 62l10 -46q-62 -20 -101 -55t-63 -111q-42 -133 -50 -542l-58 -4l-16 180q-128 -198 -338 -198h-12q-94 2 -196 52 t-185 154q-187 234 -187 639v17z" />
<glyph unicode="H" horiz-adv-x="1214" d="M-82 -52q44 26 76 45t55 54q42 64 63 275q35 362 35 619q0 96 -5 177q-15 203 -120 269q-24 15 -38 25l4 42q173 -43 279 -43h14q109 3 191 19l2 -36q-12 -6 -38 -32t-53 -74q-67 -119 -81 -302q-11 -87 -16 -266q78 -3 148 -3q251 0 408 39q-5 315 -7.5 384.5 t-16.5 122.5t-36 99q-49 102 -124 138l4 38q72 -24 199 -35q96 -8 172 -8q116 0 187 19l-4 -46q-89 -39 -122 -78q-72 -84 -82 -216q-22 -284 -22 -499q0 -489 114 -616q38 -43 120 -75l-18 -30q-156 50 -329 50q-29 0 -59 -1q-62 -3 -108 -11l-6 48q36 12 63 26t45 43 q34 55 34 223q-2 56 -2 124v144q-116 12 -277 12t-281 -20q5 -255 20.5 -354.5t28.5 -134.5t30 -56q23 -28 93 -61l-12 -40q-66 16 -158 16q-23 0 -47 -1q-220 -9 -299 -43z" />
<glyph unicode="I" horiz-adv-x="562" d="M10 1434l10 44q73 -31 181 -31q138 0 331 51l8 -28q-60 -27 -88 -58.5t-50 -76.5t-39 -115q-42 -174 -42 -505q0 -102 4 -219q10 -294 79 -416q36 -64 96 -78l-28 -36q-67 9 -140 9q-98 0 -208 -16q-62 -9 -96 -25l-8 26q26 24 52 49t45 67q42 93 42 246v8q-1 158 -2 286 t-4 244q-8 294 -15 368q-10 101 -59 158q-21 24 -69 48z" />
<glyph unicode="J" horiz-adv-x="1038" d="M-99 445q17 103 61 165t99 100q96 66 207 66h16q97 -8 152 -84q43 -59 43 -138q0 -65 -30 -144q-40 -106 -121 -139q-26 -10 -54 -10q-18 0 -38 4q-50 11 -77 45t-39 75t-12 83q0 66 27 104t49 52q30 19 57 19q18 0 35 -8q42 -21 55 -54q11 -27 11 -55q0 -6 -1 -13 q-3 -35 -23 -61t-51 -26t-46 17t-14 37q2 41 35 46q12 4 25 -4t17 -30q23 23 18 54q0 24 -17 39t-37 13t-36 -11t-29 -27q-28 -39 -28 -82q0 -6 1 -12q4 -50 18 -77t32 -45q34 -34 69 -34t63 25t48 63q38 73 38 159v17q-4 70 -58 113q-43 34 -85 34q-7 0 -14 -1 q-49 -6 -95 -27t-83 -59q-81 -83 -81 -212v-12q4 -156 123 -275q117 -117 284 -117h11q290 6 290 593q0 72 -4 153q-13 340 -77 474q-78 164 -299 194l-4 46q93 -13 213 -13q125 0 278 14q101 9 191 27l4 -42q-38 -18 -70 -44t-54 -74q-46 -100 -46 -314q2 -90 16 -202 t23 -232q6 -76 6 -145q0 -191 -45 -327q-80 -240 -350 -262q-26 -2 -51 -2q-120 0 -218 40q-119 48 -198 133t-113 196q-23 74 -23 144q0 36 6 70z" />
<glyph unicode="K" horiz-adv-x="1118" d="M-40 -6q69 51 102 111q61 115 72 287q18 272 18 490q0 230 -20 400q-18 143 -122 187q-26 11 -44 23l14 46q94 -36 236 -36q57 0 122 6q68 6 130 20l12 -42q-98 -30 -118 -186q-20 -151 -46 -496q172 13 321 157q156 152 191 377q3 24 3 44q0 49 -18 72q-16 20 -47 20 l4 44q97 -16 205 -16q45 0 91 2q158 10 238 26l2 -40q-110 -32 -148 -54q-78 -46 -121 -124t-90 -157t-108 -155q-143 -179 -299 -234q259 -112 355 -327q39 -87 39 -185t-3 -187q-1 -33 -1 -66q0 -54 3 -107q5 -84 20 -159t49 -130q75 -121 242 -121q81 0 141 69 q59 68 59 141q0 72 -44 123q-43 49 -95.5 49t-93.5 -38t-41 -84q0 -106 82 -106q34 0 57 25t27 59q-18 -28 -46 -27t-46 18t-14 38t24 36t55 9t53 -35t12 -57t-15 -48t-26 -35q-36 -31 -81 -31h-14q-54 6 -80 31t-35 61q-5 19 -5 40q0 18 4 37q8 41 33 76q55 77 150 77h9 q62 0 119 -68q53 -64 53 -158q0 -107 -67 -185q-85 -99 -241 -99h-12q-72 0 -146 41t-133 118q-127 166 -127 424v27q2 90 2 187t-22 177q-71 213 -202 288q-59 36 -175 36q-24 0 -51 -2q-6 -138 -6 -257v-183q0 -158 112 -207q30 -13 58 -29l-16 -34q-36 6 -101 6t-138 -5 q-181 -12 -255 -37z" />
<glyph unicode="L" horiz-adv-x="1048" d="M-20 -18q42 24 73 44t52 51q40 58 44.5 175.5t14.5 235.5t18 244q12 200 12 327q0 76 -4 125q-20 212 -114 281q-26 19 -50 31l14 32q130 -37 309 -37q26 0 52 1q69 2 133 12l6 -36q-126 -61 -168 -378q-34 -238 -34 -499q0 -174 15 -358q5 -61 11 -109q42 -46 197 -50 q8 0 16 -1q144 0 223 62q84 65 106 173q6 32 13 65t13 70t12 73l58 -6q-24 -144 -24 -272q0 -144 30 -268q-214 34 -518 34t-490 -62z" />
<glyph unicode="M" horiz-adv-x="1586" d="M-122 1464q144 -12 268 -12t150 26q22 -38 22 -252v-112q53 154 142 237q79 73 155.5 73t140.5 -68t90 -194q64 164 171 255q88 75 198 74q24 0 49 -3q254 -37 253 -406q0 -122 -27 -280q-28 -160 -77 -322t-94 -311t-72 -280q-17 -84 -18 -152q0 -38 6 -71 q15 -92 51 -148t78 -87q70 -51 146 -51h14q82 4 146 86q58 75 58 158q0 56 -42 98t-102 42h-10q-64 -4 -100 -51q-29 -38 -29 -75q1 -5 1 -10q4 -42 28 -68t49 -23q32 4 57 29q-20 8 -33 21t-10 37t16 35t30 13q5 1 9 1q34 0 40 -37q1 -11 1 -22q0 -80 -61 -115 q-26 -15 -68 -15q-76 0 -104 76q-15 40 -15 76q-1 25 7 47q18 55 68 100q46 41 126 41h14q122 -12 172 -132q19 -46 19 -89q0 -30 -9 -58q-22 -69 -61 -116q-90 -109 -249 -109q-84 2 -163 53t-132 141q-78 132 -78 297q0 89 23 189q22 98 55 231t64 275t52 280 q19 126 19 229v20q-4 248 -138 259h-10q-103 0 -184 -134q-70 -117 -89 -239q-37 -242 -37 -514v-53q0 -116 100 -145q24 -7 42 -9l-4 -32q-285 -38 -432 -100l-18 42q90 45 124 133q32 83 36 261q5 129 5 235q0 264 -29 377q-36 142 -116 142q-149 -6 -225 -370 q-36 -169 -36 -338q0 -96 12 -193q34 -280 167 -357l-2 -52q-71 21 -158 21q-23 0 -46 -1q-216 -12 -298 -56l-24 52q48 26 81 45t56 55q44 68 49.5 232t9.5 246t5 148t2 124v40q0 41 -1 87q-2 69 -13 143t-39 141q-62 148 -216 199z" />
<glyph unicode="N" horiz-adv-x="1208" d="M-72 1542q38 -4 175 -4t271 24q105 -403 459 -1212q49 -112 89 -196q0 548 -34 914q-15 185 -42.5 250.5t-50.5 92.5t-53 45v40q131 -27 301 -27q32 0 66 1q67 2 131 12v-46q-78 -5 -132 -66q-66 -75 -66 -224l8 -588q0 -480 -18 -628l-130 14q-62 124 -136 289t-152 335 q-194 424 -296 590q-15 -152 -15 -329q0 -247 29 -542q14 -145 32 -265q-359 -14 -386 -48l-10 42q36 20 67 34t55 44q49 62 60.5 276t14.5 439v39q0 200 -28 349q-31 163 -72 233q-34 58 -100 58q-13 0 -27 -2z" />
<glyph unicode="O" d="M30 711q4 211 67 354t155 233t195 132t198 42t192 -46t173 -135q164 -193 176 -521q1 -19 1 -39q0 -166 -47 -314q-52 -165 -139 -286t-199 -190q-110 -68 -206 -68h-3q-97 1 -195 51t-181 153t-137 263q-50 149 -50 342v29zM200 563q4 -73 18 -149t39 -149t63 -131 q86 -131 212 -138h14q123 0 237 132q107 125 173 329q55 171 55 322q0 20 -1 39q-13 159 -36 226q0 -130 -81 -214q-31 -32 -91 -60t-124 -31h-15q-55 0 -99 19q-108 47 -124 184q-3 21 -3 42q0 97 71 169q70 72 172 81q89 0 128 -60q18 -28 20 -77v-8q0 -44 -21 -76 q-23 -35 -56 -55q-42 -25 -79 -25q-25 0 -48 11q-28 18 -28 46q0 13 6 29q8 19 25 31t42 6t32 -31t1 -47q40 10 59 42q18 30 18 63q0 36 -22 64q-21 27 -80 27t-115 -49t-58 -141q0 -129 84 -171q28 -14 70 -13h21q57 4 100 29t72 62q61 79 62 171v7q0 87 -21 142 q-22 57 -57 92q-61 59 -155 63q-5 0 -10 1q-89 0 -166 -58q-82 -61 -148 -157t-109 -217t-47 -210q-2 -44 -2 -85t2 -77z" />
<glyph unicode="P" horiz-adv-x="1118" d="M-102 1482l8 50q111 -44 172 -58q73 -17 145 -17q68 0 135 15q-17 -109 -26 -270q124 256 313 318q47 16 97 15q27 0 54 -4q78 -13 134 -62t94 -126q64 -130 64 -300q0 -42 -4 -87q-41 -383 -247 -499q-61 -34 -127 -34q-13 0 -26 1q-80 8 -135 33t-101 64 q-86 73 -144 193q0 -282 32 -506q24 -163 122 -196l42 -14l-8 -38q-105 22 -208 22q-88 0 -175 -16q-53 -10 -85 -24l-2 56q26 22 48 41t39 55q36 76 43.5 273t15.5 396q2 57 2 108q0 128 -14 219q-20 128 -40 188t-50 101q-58 79 -168 103zM321 973q-1 -13 -1 -27 q0 -51 15 -105q19 -69 58 -132q93 -150 225 -161q11 -1 21 -1q97 0 166 91q97 129 113 406q0 134 -51 236q-61 122 -163 130h-6q-69 0 -133 -41q-67 -43 -119 -109t-86 -145t-39 -142z" />
<glyph unicode="Q" horiz-adv-x="1320" d="M22 741q12 173 62 315t135 247q177 219 455 219h20q241 -8 393 -212q153 -205 153 -540q-6 -363 -193 -611q-61 -81 -139 -137q26 -84 55 -177t67 -172q88 -184 214 -201q20 -3 39 -3q98 0 155 80q48 68 48 149v16q0 66 -57 112q-43 34 -89 34q-43 0 -89 -29 q-54 -34 -64 -88q-5 -27 7 -53q22 -49 74 -58q13 -2 24 -2q29 0 50 14q18 16 26 50q2 6 2 13q0 26 -28 45q1 -4 1 -9q0 -34 -37 -47q-22 -6 -40 5t-23 29t6 38t35 28t45 6t41 -13q48 -26 48 -79q0 -93 -84 -128q-24 -10 -50 -10q-57 0 -90.5 22t-47.5 48t-16 68v10 q0 71 56 129q53 55 118 59q12 1 24 1q48 0 82 -13q42 -16 72 -46q60 -60 64 -162v-11q0 -104 -72 -189q-76 -89 -187 -89q-9 0 -19 1q-96 4 -177 51t-147 159q-26 47 -59 149q-50 154 -73 209q-104 -48 -218 -48h-9q-119 2 -224 64t-185 171t-123 261q-34 119 -34 251 q0 36 3 74zM178 683q4 -155 47 -263t87 -170q13 72 106 106q42 16 90 16q62 0 134 -28q135 -54 210 -182q84 96 142 264q56 162 56 392v16q0 238 -109 426q-51 88 -122 141q-67 50 -146 50h-9q-84 -3 -172 -64t-159 -165t-115 -244q-40 -128 -40 -269v-26zM414 170 q4 -32 19 -57t39 -46t56 -35q26 -12 72 -12q9 0 20 1q60 3 136 55q-61 96 -120 134q-60 41 -123 41q-11 0 -23 -1q-36 -4 -58 -26q-19 -19 -19 -44q0 -5 1 -10z" />
<glyph unicode="R" horiz-adv-x="1116" d="M-40 -38q79 26 110 66q56 71 64 192q22 464 22 763q0 179 -8 299q-14 152 -182 178v52q141 -58 365 -58q42 0 87 2q64 2 116 2q104 0 158 -8q82 -12 151 -37t119 -75q92 -92 92 -257q0 -33 -4 -69q-29 -254 -169 -367q-107 -87 -262 -87h-17q177 -100 260 -360 q24 -72 45 -132t53 -103q60 -80 170 -81q14 0 28 2l-12 -40q-37 6 -92 6q-98 0 -255 -20q-61 -8 -97 -20l-12 38q58 28 78 84q9 26 9 57q0 36 -12 78q-23 79 -45 150t-54 139q-77 163 -186 202q-75 25 -133 25q-31 0 -57 -7q0 -252 18 -341t52 -149t100 -86l-10 -32 q-71 8 -141 8q-113 0 -226 -21q-69 -13 -115 -43zM274 808q-1 -29 -1 -55q0 -52 3 -93q108 -19 193 -19q132 0 211 45q153 87 176 362q2 22 2 42q0 129 -82 204q-97 88 -270 88q-73 0 -160 -16q-65 -260 -72 -558z" />
<glyph unicode="S" horiz-adv-x="1004" d="M10 262q0 137 80 208q68 60 176 60q177 0 237 -144q21 -50 21 -108t-21 -95t-53 -62q-60 -47 -125 -47h-13q-59 4 -103 50q-38 40 -38 73q0 32 8 59q7 24 23 45q36 47 98 47q32 0 52 -19t23 -45t-12 -43t-37 -17q-38 0 -38 38q0 14 8 25t24 9q-12 12 -37 9t-44 -28 t-16 -60t31 -67q27 -31 64 -31h2q38 1 62 15t42 37q37 48 37 96q0 50 -15 86q-14 33 -39 60q-56 61 -145.5 61t-141.5 -56q-48 -52 -48 -149v-15q4 -118 101 -208q105 -98 255 -98q133 0 218 101q76 90 76 223q0 93 -46 169q-90 146 -236 257q-80 62 -151 116t-124 107 q-115 115 -115 245q0 159 107 264q112 111 285 111q12 0 24 -1q58 -2 111 -20t100 -36t89 -29q20 -5 38 -5q56 0 88 52q10 16 14 44l56 -4q-26 -166 -26 -280q0 -105 22 -166l-52 -12q-45 141 -86 204q-78 121 -174 160q-72 27 -130 27q-33 0 -61 -9q-99 -31 -161 -154 q-28 -56 -28 -124q0 -14 1 -28q7 -84 37 -135t61 -86t65 -66t71 -61t90 -76t113 -108t103 -127q91 -138 91 -275q0 -152 -135 -268q-140 -120 -321 -120q-185 0 -306 119q-126 124 -126 305z" />
<glyph unicode="T" horiz-adv-x="998" d="M-40 1522q118 -14 243 -29t257 -24q109 -8 214 -8q173 0 334 21l-68 -582h-38q8 104 13 191q1 15 1 29q0 69 -20 123q-24 65 -91 106t-203 55q-34 -206 -34 -474q0 -189 17 -410q22 -286 71 -392t126 -140q36 -16 70 -28l-16 -46q-95 37 -230 37q-39 0 -82 -3 q-181 -13 -262 -56l-16 56q84 47 126 119q55 94 62 287q2 60 2 128q0 353 -48 928q-222 -11 -294 -125q-36 -57 -48 -140t-16 -197l-56 -12q10 140 13 282v26q0 131 -27 278z" />
<glyph unicode="U" horiz-adv-x="1274" d="M-40 1422l8 42q48 -6 102 -15t115 -14q52 -4 100 -4q86 0 163 13l-4 -46q-75 -25 -127 -292q-28 -146 -37 -342q-6 -129 -6 -215q0 -46 1 -80q5 -99 25 -188t60 -155q76 -126 230 -126q20 0 42 2q217 21 241 475q4 65 4 164q0 153 -9 386q-8 218 -95 274q-39 25 -93 41 l6 48q114 -12 239 -12t233 22l6 -34q-135 -77 -142 -302q0 -405 40 -798q27 -232 107 -293q19 -15 38 -14q16 0 33 10q36 23 66 101l30 -20q-18 -90 -101 -139q-50 -29 -94 -29q-91 0 -161 124q-38 68 -62 186q-49 -141 -103.5 -194.5t-122.5 -78.5q-55 -20 -132 -20 q-18 0 -38 1q-246 14 -358 208q-77 134 -77 353q0 98 15 212q34 251 34 409q0 76 -8 131q-29 201 -168 209z" />
<glyph unicode="V" horiz-adv-x="960" d="M-184 1388v44q84 -10 160 -10q222 0 386 84l16 -54q-36 -16 -64 -31t-43 -44q-18 -35 -18 -103q0 -82 26 -211q47 -237 193 -783q104 247 198 622q46 184 46 258t-10 105q-15 46 -70 83l14 54q123 -49 506 -60l-12 -34q-108 -12 -183 -92t-131 -236q-163 -455 -232 -742 q-30 -112 -35 -190q-1 -18 -1 -34q0 -48 12 -60l-116 -44q-65 92 -91 167q-28 84 -107 369q-221 797 -294 887q-39 47 -150 55z" />
<glyph unicode="W" horiz-adv-x="1768" d="M-40 1464l10 40q199 -32 279 -32h7q78 2 122 12q-10 -78 -27 -193t-33 -245q-42 -332 -46 -544v-29q0 -191 57 -293q60 -108 210 -108h5q138 4 201 232q39 144 46 324q5 140 5 224v43q-2 87 -12 161q-21 158 -68 228q18 1 35 1q55 1 105 -7q66 -10 104 -12h13q34 0 77 8 q-98 -276 -98 -660q5 -271 53 -383q51 -118 163 -118q24 0 50 5q209 46 219 451q2 71 2 135q0 330 -48 458q-40 106 -131 122l6 44q90 -15 183 -15q166 0 341 47l8 -64q-42 -28 -82 -62t-70 -88q-56 -101 -56 -268q0 -34 2 -72q4 -82 9 -177q3 -53 3 -106q0 -42 -2 -85 q-4 -96 -22 -185t-60 -159q-93 -155 -288 -162h-19q-131 0 -220 93q-75 79 -117 227q-30 -82 -71 -152t-106 -113q-76 -50 -178 -50q-88 0 -197 37q-243 83 -258 393q-2 42 -2 80q0 107 14 187q20 108 33 192t26 199q7 65 7 122q0 44 -4 84q-10 91 -51 152t-129 81z" />
<glyph unicode="X" horiz-adv-x="1130" d="M-144 90q119 51 166 80q99 60 194 184q127 171 252 364q-159 272 -211.5 340t-84.5 105t-67 61q-68 47 -183 54l2 56q144 -22 277 -26h28q121 0 257 30l12 -46q-62 -30 -83 -97q-7 -21 -7 -44q0 -51 32 -115q21 -37 110 -196q179 278 212.5 346t38.5 101q2 12 2 24 q0 61 -55 83l10 30q52 -4 115 -9t126 -7q24 -1 46 -1q110 0 169 21l-4 -48q-42 -10 -78 -19t-76 -36q-145 -98 -448 -585q215 -368 370 -594q138 -209 232 -236q28 -8 62 -16l2 -40q-188 25 -351 25q-72 0 -139 -5q-80 -6 -130 -26l-8 48q50 26 87 49t52 55q9 19 9 46 q0 62 -48 164q-40 84 -214 400q-215 -369 -215 -452q0 -9 3 -15q14 -31 58 -45l-12 -44q-117 22 -262 22t-242 -22z" />
<glyph unicode="Y" horiz-adv-x="1198" d="M-30 1338l6 48q95 -16 188 -16q157 0 308 46l-4 -46q-169 -50 -214 -394q-21 -159 -21 -260q0 -73 11 -116q26 -102 80 -150q47 -42 134 -42q13 0 26 1q106 7 181 79t120 175t63 221q13 85 13 158q0 28 -2 55q-7 95 -18 163t-30 116q-37 93 -119 124l20 42 q128 -42 244 -42q48 0 94 7q56 9 92 37l4 -44q-120 -83 -159 -317q-13 -82 -13 -172q0 -101 16 -212q38 -256 47 -359.5t9 -233.5q0 -497 -219 -658q-87 -64 -205 -64t-184 29t-110 76q-86 92 -119 307q-27 174 -99 256q120 -26 203 -26q65 0 107 16q-66 -105 -66 -233 q0 -55 12 -115q24 -108 92 -177q59 -61 137 -61q31 0 65 10q123 37 194 215q60 150 60 335q0 47 -4 96q-14 140 -26 238t-18 168q-59 -133 -125.5 -198.5t-132.5 -98.5t-150 -33q-152 0 -258 84q-93 75 -104 266q-3 53 -3 117q0 69 3 151q4 73 4 127q0 65 -5 104 q-9 71 -28 110t-44 56t-53 35z" />
<glyph unicode="Z" horiz-adv-x="1030" d="M-20 100q116 134 205 274q179 282 313 456q256 333 344 504q-140 18 -254 18h-23q-123 -2 -216 -48q-191 -95 -247 -426l-66 2q37 177 37 411v35q-1 86 -13 146q289 -39 514 -39q285 0 464 63q-1 -13 -1 -25q0 -64 23 -87q-220 -286 -457 -614t-465 -714q86 2 172 2 t166 7q181 16 266 77q64 44 103 119t67 187l44 -2q-70 -305 -84 -564q-264 60 -401 70q-61 5 -118 5q-185 0 -339 -47q-16 148 -34 190z" />
<glyph unicode="[" horiz-adv-x="410" d="M83 303q7 241 11 367t5 217t4 196t4 204q2 237 -17 305q156 -11 300 -4l-4 -56q-77 -17 -132 -24q-4 -52 -11 -127t-13 -168q-24 -380 -21 -597.5t6 -332.5q6 -236 15 -333q22 -2 43 -5t46 -6t53 -9l-12 -64q-42 6 -136.5 6t-137.5 -10q-10 200 -3 441z" />
<glyph unicode="\" horiz-adv-x="858" d="M-52 1478q30 -10 87 -10t103 14q3 0 57 -128q107 -250 186 -421t140 -303q143 -310 337 -694q-50 14 -94 14h-78q-137 411 -348 840q-195 389 -390 688z" />
<glyph unicode="]" horiz-adv-x="420" d="M-30 -134l4 56q36 5 75 13.5t55 10.5q4 50 11 126t14 169q30 398 16 929q-3 114 -8 202t-7 130q-24 0 -46 4t-46 7t-52 9l12 66q28 -4 124 -4t148 8q12 -243 1 -588.5t-12 -436.5t-4 -196t-4 -204q-2 -237 17 -305q-157 11 -298 4z" />
<glyph unicode="^" horiz-adv-x="956" d="M40 632q251 417 398 698q54 108 68 152q66 -182 378 -830q-106 5 -146 -8q-51 153 -138.5 365.5t-103.5 244.5q-65 -117 -164.5 -332.5t-113.5 -251.5q-12 -2 -37 -6t-53 -9q-65 -12 -88 -23z" />
<glyph unicode="_" horiz-adv-x="1318" d="M0 114q108 0 237 -1t262 0t263 2t240 4q244 7 316 21q0 -12 -8 -28t-15 -34q-18 -46 1 -84q-122 14 -416 12t-424 -6q-290 -9 -432 -32q-6 18 -6 36v50q0 33 -18 60z" />
<glyph unicode="`" d="M440 1440q26 60 72 98q66 -33 316 -232l-54 -76q-89 82 -334 210z" />
<glyph unicode="a" horiz-adv-x="984" d="M84 326q15 145 124 217q81 53 197 54q24 0 49 -3q90 -10 150 -53t92 -95q9 82 9 153q0 261 -121 380q-57 56 -140 56h-3q-85 -1 -130 -26t-72 -59q-47 -59 -47 -124q0 -47 34 -80q54 -52 111 -52q10 0 21 2q50 8 78 50q22 33 22 64.5t-12 46.5t-28 23q-14 7 -28 7 q-23 0 -44 -21q18 2 36 -7t18 -34t-18 -36t-40 -9t-40 19t-18 52t29 59t71 24t81 -36t39 -100q0 -50 -33 -83q-63 -63 -153 -63t-150 67q-52 58 -52 131q0 32 20 81t63 93q106 108 263 108q242 0 334 -169q55 -101 55 -261q0 -108 -25 -242q-27 -153 -27 -252 q0 -130 46 -170q30 -26 61 -26q15 0 30 6q42 10 52 66l26 -10q-27 -117 -123 -151q-19 -7 -42 -7q-21 0 -45 6q-94 23 -120 168q-76 -118 -193 -155q-35 -11 -81 -11q-15 0 -32 1q-66 5 -125 40t-99 90q-73 99 -73 224q0 23 3 47zM248 288q10 -120 61 -176q47 -51 125 -51 h14q137 8 228 115v29q0 59 6 123q-16 62 -65 115t-103 62q-27 4 -52.5 4.5t-50.5 -4.5q-49 -9 -87 -36q-78 -55 -78 -156q1 -12 2 -25z" />
<glyph unicode="b" horiz-adv-x="1108" d="M-52 1554v38q64 -10 132 -10q78 0 163 13q59 9 107 33q-48 -384 -48 -760q54 99 140 175q106 93 214 93q52 0 104 -21q72 -29 136 -100q150 -166 150 -455q0 -216 -117 -373q-114 -153 -276 -153q-85 0 -172 61t-145 169q18 -130 52 -238q-26 2 -55 2q-110 0 -261 -27 q-50 -9 -94 -17l-12 28q102 63 138 118q69 106 76 262q2 84 7 200t7 241q1 54 1 102q1 207 -17 311q-22 128 -45 179t-53 78t-64 36t-68 15zM338 487q22 -69 63 -132q97 -149 247 -149q80 0 128 55t72 132q37 118 37 254q0 19 -1 39q-5 124 -67 231q-71 121 -169 121h-6 q-129 -4 -231 -147q-45 -63 -71 -138q-25 -72 -25 -131q0 -63 23 -135z" />
<glyph unicode="c" horiz-adv-x="1034" d="M78 638q23 211 144 340q114 122 278 126h13q95 0 251 -80q42 -22 71 -22q15 0 27 6q34 18 56 122l44 2l-10 -478l-48 -16q-17 131 -84 235q-92 143 -236 143q-82 0 -141 -39t-95 -105q-65 -120 -65 -297q0 -21 1 -41q8 -204 84 -327t204 -123t223 95q39 39 61 82t24 71 h48q-22 -139 -132 -239q-117 -106 -272 -106q-15 0 -30 1q-226 15 -342 223q-81 145 -81 321q0 52 7 106z" />
<glyph unicode="d" horiz-adv-x="1132" d="M84 632q8 201 132 361q121 158 274 158q11 0 22 -1q213 -13 296 -326q-10 305 -28 430.5t-31 190.5q-32 159 -69 247q88 -14 193 -23q19 -2 39 -2q89 0 196 33v-40q-30 -8 -62 -17t-57 -31q-57 -51 -61 -174q-2 -48 -2 -121v-162q0 -718 40 -847q33 -105 110 -148 q36 -20 78 -34l-10 -36q-102 18 -170 18q-146 0 -234 -28q16 74 32 144t26 162q-96 -210 -264 -286q-55 -25 -124 -25q-14 0 -28 1q-86 6 -147 58t-96 131q-56 127 -56 313q0 27 1 54zM250 620q-2 -30 -2 -58q0 -296 204 -314q17 -2 33 -2q126 0 213 104q85 102 90 220v18 q0 119 -61 279q-76 199 -181 203h-7q-110 0 -193 -127q-84 -128 -96 -323z" />
<glyph unicode="e" horiz-adv-x="948" d="M82 320q-22 93 -21 180q0 138 55 264q90 204 279 284q69 29 142 29q23 0 47 -3q98 -12 151 -60t75 -107q25 -68 25 -160q0 -53 -8 -113q-5 -36 -10 -71t-5 -66t6 -51q-160 51 -248 63q-68 9 -129 9q-113 0 -207 -30v-23q0 -225 114 -373q68 -88 153 -92q3 0 6 -1 q38 0 77 25q65 46 65 114v12q-3 40 -43 92l250 12q-47 -135 -103.5 -203.5t-124.5 -106.5q-60 -34 -142 -34q-11 0 -22 1q-96 5 -173 60q-153 109 -209 349zM240 568q121 15 223 15q94 0 171 -13q56 117 56 246v17q-5 171 -130 189q-9 1 -18 1q-102 0 -187 -126 q-90 -132 -115 -329z" />
<glyph unicode="f" horiz-adv-x="790" d="M-10 34q30 2 57 4t52 21q55 42 80 176q38 206 38 405q0 35 -1 70q-54 -4 -108 -18q10 22 10 49t-4 43q18 -2 43 -3t55 -3l-4 96t-6 103t-4 131t9 151t33 143t67 118q75 87 209 87q32 0 68 -5q169 -26 255 -121q75 -83 75 -187t-33 -166t-79 -95q-76 -54 -150 -54h-13 q-81 5 -126 35t-67 73t-22 92t21 90q47 91 148 91h9q58 -2 80 -39q20 -34 20 -70v-6q-2 -39 -28 -76q-22 -31 -56 -31q-6 0 -13 1q-43 7 -58 29t-14 46t16 42t37 16t28 -12t4 -24q-5 -32 -28 -48q20 -8 44 3t28 48t-18 58t-56 20t-70 -29t-40 -91v-12q0 -55 32 -95 q36 -44 75 -45h6q36 0 66 11q33 12 63 40q73 68 80 182v11q0 71 -48 130q-52 63 -130 71q-8 1 -15 1q-81 0 -153 -87q-91 -110 -110 -300q-19 -187 -22 -332q92 -4 159 -4q115 0 151 8q-18 -62 -18 -95q0 -11 2 -19q-218 44 -294 48q0 -209 46 -462q29 -155 57.5 -199.5 t53.5 -62.5t57 -38l-22 -34q-159 75 -364 75q-18 0 -36 -1q-66 -2 -122 -12z" />
<glyph unicode="g" horiz-adv-x="1114" d="M64 458q8 168 60 274t122 164t147 77q54 13 106 13q22 0 43 -2q72 -8 155 -68t129 -184q16 76 31 126q13 44 13 71v7q73 -20 184 -20q52 0 112 4l-2 -38q-90 -8 -141 -75t-74 -186t-27 -205q-3 -57 -3 -112q0 -28 1 -55q2 -81 9 -158t12 -138t7 -123v-31q0 -48 -4 -99 q-15 -166 -76 -272q-108 -182 -288 -230q-53 -14 -101 -14q-81 0 -149 40q-109 64 -141 179q-10 36 -10 71q0 62 32 122q53 98 161 140q58 23 108 23q80 0 139 -57q49 -47 49 -116v-10q-8 -76 -65 -137q-51 -55 -115 -55q-12 0 -24 2q-44 6 -66 45q-19 34 -19 73v10 q3 44 32 81t78 40h8q43 0 60 -28q19 -31 2 -58t-49 -24t-46 43q-33 -24 -33 -69q0 -6 1 -12q2 -23 16 -40t47 -17t58 15t41 38q30 43 30 93q0 49 -26 77q-45 47 -118 47h-12q-84 -4 -150 -62q-72 -63 -72 -156q0 -98 78 -157q74 -55 166 -55h12q48 2 108 35t108 100 q86 120 86 298q0 60 -10 127q-20 140 -20 258q-67 -98 -124 -142q-108 -83 -207 -83q-7 0 -15 1q-268 15 -345 314q-22 83 -22 198q0 39 3 82zM224 404q-3 -40 -3 -77q0 -167 70 -274q71 -108 176 -108q11 0 23 1q97 16 185 117q82 95 103 203q2 44 4 87t4 100t12 119 q-14 106 -63 175t-155 81q-18 2 -35 2q-110 0 -196 -93q-110 -119 -125 -333z" />
<glyph unicode="h" horiz-adv-x="1034" d="M-52 1634q69 -6 132 -6q214 0 362 66l4 -34q-22 -22 -43 -40t-39 -48q-39 -66 -50 -206q-18 -234 -18 -646q103 242 278 313q40 16 85 16q25 0 52 -5q75 -14 122 -77t70 -147q31 -111 31 -237q0 -19 -1 -37q-5 -146 -10 -210t-12 -122t-15 -116t-17 -132q-2 -20 -2 -37 q0 -48 18 -80q25 -43 61 -49q6 -1 13 -1q30 0 58 23q35 28 47 82l32 -14q-9 -83 -61 -127q-40 -34 -93 -34q-27 0 -58 9q-96 29 -124 114q-19 58 -19 165q0 65 7 149q24 225 24 373q0 65 -5 115q-15 158 -94 224q-41 34 -101 34t-109 -44q-99 -89 -142 -282 q-21 -93 -21 -192l2 -30q19 -190 64 -258q24 -36 59 -58t83 -48l-10 -36q-197 62 -406 68h-15q-64 0 -107 -16l-16 48q26 10 57 20t59 42q64 73 74 284q11 220 11 420q0 191 -10 365q-14 245 -55 314q-40 67 -103 81q-27 6 -47 12z" />
<glyph unicode="i" horiz-adv-x="506" d="M30 10q82 28 122 94q20 30 26 62q44 204 44 389q0 300 -58 395q-47 78 -132 92l-2 32q60 -6 136 -6h56q24 -2 47 -3t46 -1t45 -4q-20 -240 -20 -418q-7 -118 -7 -214q0 -152 17 -249q10 -59 27 -72t35 -21q39 -17 112 -32l2 -34l-88 -1t-166.5 -4t-227.5 -29zM102 1312 q-1 5 -1 11q0 36 24 68q27 37 88 45q12 2 22 2q46 0 76 -28q37 -34 43 -77q1 -8 1 -15q0 -35 -23 -67q-28 -39 -93 -43h-14q-55 0 -85 29q-34 33 -38 75z" />
<glyph unicode="j" horiz-adv-x="588" d="M-140 -322q36 138 132 213q50 39 114 42h18q51 0 83 -15q37 -18 56 -48q27 -43 27 -105.5t-10 -104.5t-32 -78q-43 -70 -115 -70q-18 0 -37 4q-54 10 -74 52q-14 30 -14 63q0 13 2 26q8 47 39 83t73 36t57 -19t12 -41t-17 -35t-37 -12t-27 21t10 40q-18 0 -38 -27 q-18 -25 -18 -57v-6q2 -36 24 -59t44 -22t40 11t34 30q38 48 43 126q1 9 1 17q0 66 -35 101q-39 40 -81 41h-4q-40 0 -76 -19q-38 -20 -69 -59q-60 -76 -60 -170q0 -23 3 -47q10 -88 78 -160q68 -71 155 -71q18 0 37 3q168 28 168 309q0 35 -3 75q-7 104 -35 275t-59 370 t-56 298t-56 139t-66 64t-68 37t-53 25l4 38q36 -2 101 -2q291 0 477 62l16 -34q-42 -26 -80 -54t-65 -72q-44 -72 -44 -187q0 -45 7 -97q21 -183 50.5 -329.5t46.5 -230.5t31 -154t16 -138v-25q0 -55 -7 -111q-9 -68 -29 -132t-56 -113q-78 -107 -203 -107h-9 q-192 4 -294 103q-86 84 -86 204q0 49 14 103zM126 1217q0 45 35 79t94 38h14q49 0 79 -25q34 -29 34 -74t-33 -79t-93 -38h-14q-50 0 -81 25q-35 29 -35 74z" />
<glyph unicode="k" horiz-adv-x="1018" d="M-40 -2q30 22 54 40t43 46q39 58 57 190q60 444 66 662q2 72 2 134q0 121 -8 194q-12 110 -29 164t-32 85t-35 56q-44 55 -100 59v30q124 -20 193 -22h29q141 0 296 44v-40q-36 -20 -66 -41t-55 -59q-55 -83 -69 -264q-32 -307 -32 -419v-160q0 -49 4 -97q176 62 300 203 q108 123 108 211q-14 105 -98 110l6 50q104 -13 202 -13h36q114 3 228 53l8 -40q-69 -32 -94 -54q-44 -37 -76 -100.5t-62 -113.5t-71 -99q-95 -113 -209 -161h14q150 0 236 -83q90 -87 102 -287q1 -16 1 -31q0 -86 -19 -174q-22 -103 -38 -194q-13 -73 -12 -134v-30 q4 -73 59 -115t108 -51q18 -3 36 -3q33 0 63 11q93 34 136 151q17 49 17 87q0 41 -19 70q-31 49 -90.5 49t-103.5 -42t-48 -110q0 -5 -1 -9q0 -54 56 -69q10 -3 19 -3q30 -1 56 25q34 34 32 70q-33 -22 -63 -22q-37 0 -37 42q0 28 21 43t47 15t48 -17t22 -51v-6 q0 -62 -43 -105q-45 -45 -97 -45t-77 25t-34 62q-4 18 -4.5 38.5t4.5 42.5q9 44 35 81q61 87 172 87q110 0 140 -112q11 -40 11 -77q0 -41 -13 -77q-24 -70 -60 -112q-79 -92 -214 -92q-163 0 -256 95q-87 89 -87 248q0 46 7 99q30 206 30 310q0 15 -1 28q-5 102 -29 163 t-76 95q-62 41 -153 41q-76 0 -173 -29q8 -180 28 -298q11 -111 56 -172q17 -24 42 -24q7 0 14 2l-14 -50q-69 25 -153 25q-77 0 -166 -21q-61 -14 -117 -42z" />
<glyph unicode="l" horiz-adv-x="504" d="M-20 1632q57 -6 132 -6h54q133 7 184 26q-10 -272 -15 -453t-9 -300q-6 -183 -6 -304q0 -111 5 -170q20 -225 53 -273q32 -57 144 -68l2 -32q-44 6 -190 14h-82q-167 -8 -230 -16l-12 26q83 29 122 92q63 95 63 548q0 57 -1 121q-7 399 -50 597q-25 82 -83 133 q-31 27 -79 35z" />
<glyph unicode="m" horiz-adv-x="1526" d="M0 1058v36q126 -10 228 -10t166 18l2 -26q-59 -20 -66 -282q58 117 112 166q95 88 182 88h14q92 -8 135 -64t59 -132q60 116 153 182q77 54 170 54q20 0 41 -2q70 -10 124 -63t89 -131q52 -116 52 -245q0 -53 -9 -109q-16 -88 -59 -194t-90 -212t-83 -200t-36 -170 t45 -119t93 -43t81 10t60 31q61 47 61 115t-42 94t-84 26t-72 -25t-30 -63q0 -47 34 -69q14 -9 34 -9q32 0 54 22q-28 10 -43 30t-3 39t28 22t33 -4q39 -16 39 -59.5t-32 -68.5t-73 -27h-6q-38 0 -69 25q-34 27 -34 86t39 99t109 40t115 -45t45 -95t-12 -91t-41 -77 q-69 -86 -203 -86q-101 0 -167 72q-69 75 -73 204q0 72 29 161t80 225t75 284q16 99 16 180q0 41 -4 78q-12 110 -57 174t-108 64t-100 -42t-61 -108t-38 -148t-22 -163q-12 -121 -12 -216t13 -124t32 -45t40 -23l39 -13l-12 -32q-90 17 -181 17q-57 0 -114 -7 q-53 -6 -79 -24l-8 42q18 6 36 11t33 21q30 32 36.5 159t19.5 247t17 188q2 34 2 61t-2 48q-4 41 -18 72q-29 65 -106 65q-42 -2 -92 -36t-92 -96q-100 -148 -100 -340l-2 2q4 -70 6 -137t6 -116t8 -82t17 -55q24 -41 111 -56l-4 -40q-161 22 -263 22q-87 0 -129 -16l-16 34 q62 27 75 44q21 30 26 91t7 120t4 130t2 149t-2 151q-7 252 -36 296q-26 39 -68 42t-74 3z" />
<glyph unicode="n" horiz-adv-x="1034" d="M0 1058q259 24 316 52q-4 -64 -5 -127t-3 -119t-2 -110q52 160 169 281q119 123 247 124q8 0 16 -1q116 -11 178 -181q43 -116 42 -240v-31q-5 -83 -50.5 -186.5t-67.5 -163.5q-28 -75 -28 -145q0 -54 17 -106q19 -59 55 -91q31 -28 72 -28q6 0 13 1q49 5 101 69l26 -22 q-20 -34 -66 -67t-98 -33t-93 17t-74 54q-73 82 -77 237q0 70 18 130t39 120t38 125q14 55 14 119v23q-3 77 -22 124t-46 72q-40 37 -88 37q-11 0 -21 -2q-60 -10 -116 -61q-118 -108 -174 -303q-27 -96 -28.5 -171t-3.5 -113q-1 -13 0 -24q0 -23 2 -40q0 -160 96 -176 l-2 -36q-42 9 -88 9q-83 0 -179 -29q-53 -16 -97 -44l-14 28q30 24 53 43t40 49q36 64 48 213q16 209 16 371q0 120 -9 216q-10 104 -112 104q-26 0 -50 -2z" />
<glyph unicode="o" horiz-adv-x="974" d="M52 560v24q0 238 134 390q117 132 284 139h12q71 0 146 -33q82 -36 148 -108q148 -161 148 -410q0 -250 -121 -404q-108 -137 -275 -150q-15 -1 -29 -1q-166 0 -294 136q-149 158 -153 417zM224 638q-1 -21 -1 -41q0 -190 77 -323q42 -74 106 -108q54 -29 105 -29 q9 0 18 1q59 6 107 38t84 95q61 106 61 249q0 60 -11 126q-35 223 -147 325q-73 67 -164 67h-15q-105 -7 -165 -129q-51 -103 -55 -271z" />
<glyph unicode="p" horiz-adv-x="1062" d="M-82 1102l12 48q108 -13 192 -13q108 0 178 21q-13 -121 -18 -274q58 114 149 181t199 73h7q134 0 236 -142q119 -166 119 -452q0 -281 -155 -455q-67 -75 -149 -112q-74 -33 -144 -33h-15q-142 7 -223 116q-4 -108 -4 -496q7 -170 190 -200l-16 -38q-73 11 -153 11 q-125 0 -265 -28q-64 -13 -92 -31l-18 34q40 26 72 50t57 71q51 95 64 291t17 329t5 251t1 221t2 183v18q0 70 -14 133q-16 71 -48 124q-67 111 -186 119zM300 506q-1 -23 -1 -46q0 -97 25 -174q30 -96 73 -148t109 -52t124 37t105 102t78 155t34 175v27q0 71 -13 139 q-16 81 -50 153t-88 118q-45 38 -105 38q-12 0 -24 -1q-75 -9 -126 -66t-82 -135q-59 -148 -59 -322z" />
<glyph unicode="q" horiz-adv-x="1126" d="M52 544q0 242 166 408q72 72 158 110t164 38q199 0 288 -238q-4 172 -14 220q110 -10 208.5 -10t141.5 18l4 -50q-121 -8 -173 -213q-37 -143 -37 -599q0 -56 1 -116q3 -354 45 -491q53 -175 102 -243q-23 3 -47 3q-112 0 -269 -52q-58 -19 -106 -45l-14 54q32 20 67 44 t62 74q63 117 63 366q0 242 -14 410q-66 -182 -207 -246q-57 -26 -142 -26t-168 42t-145 119q-134 166 -134 423zM224 590q-6 -53 -6 -101q0 -163 67 -276q37 -63 84 -95t89 -34h5q40 0 94 29q57 31 108 91t88 146t43 193q1 26 1 50q0 77 -14 140q-19 83 -52 141t-77 89 t-84 34q-7 1 -14 1q-35 0 -79 -13q-53 -15 -105 -61q-123 -109 -148 -334z" />
<glyph unicode="r" horiz-adv-x="914" d="M-10 -24q56 22 103 83t59 191q6 64 13 132t9 138q1 25 1 49q0 140 -25 247q-58 202 -132 222l-4 46q108 -18 189 -18t121 4q-27 -120 -42 -354q119 275 292 371q59 33 117 33q10 0 20 -1q67 -7 100 -35t52 -66q32 -65 32 -138q0 -37 -8 -76q-8 -36 -8 -58q0 -10 2 -16 q5 -20 23 -40q-74 22 -176 34q-19 1 -36 1t-32 -1q30 42 35 112q2 32 2 57q0 30 -3 51q-6 38 -40 48q-14 2 -30 2t-36 -9q-91 -41 -186 -202q-71 -120 -94.5 -203.5t-24.5 -105.5t-3 -24q14 -269 39 -338q20 -53 45.5 -72.5t39.5 -29.5l4 -42q-49 21 -119 21q-18 0 -37 -1 q-175 -11 -256 -58z" />
<glyph unicode="s" horiz-adv-x="910" d="M32 880v8q0 80 38 154q40 78 131 140t223 79q48 6 90 6q75 0 133 -19q91 -30 151 -88t81 -139q9 -33 8 -68q0 -49 -17 -101q-18 -63 -61 -101q-73 -66 -155 -66q-45 0 -92 20q-80 34 -134 105q-26 34 -32 72q-4 23 -4 43q0 55 31 93q43 52 133 60h10q70 0 122 -52 q45 -45 45 -95q0 -8 -1 -17q-12 -90 -100 -102q-7 -1 -14 -1q-26 0 -55 11q-37 14 -53 54q-6 18 -6 39q0 13 2 26q6 37 31 50t44 11t33 -11q23 -15 24 -41q0 -10 -4 -22q-12 -30 -43 -30q-21 0 -51 14q5 -60 82 -60q69 8 78 61q1 7 1 14q0 43 -49 85q-39 29 -91 29h-3 q-54 -1 -94 -45q-35 -43 -35 -86q0 -20 8 -40q27 -68 130 -116q21 -10 46 -10q49 0 109 40q54 36 64 96q3 21 3 41q0 39 -12 79q-19 60 -64 108t-106 60q-43 8 -81 8q-16 0 -31 -1q-51 -5 -91 -20q-65 -24 -128 -77q-77 -77 -77 -185v-6q1 -51 34 -108t84 -98t108 -76 t113 -68t102 -72t75 -90t44 -104q19 -66 19 -114q0 -27 -6 -49q-16 -60 -39 -108t-61 -90q-87 -97 -212 -104q-14 -1 -28 -1q-117 0 -202 85q-62 62 -66 157v7q0 49 25 92q27 46 64 60t70 18q11 1 22 1q22 0 45 -5q34 -8 60 -26q56 -38 56 -98v-8q-4 -53 -48 -91 q-40 -33 -70 -33h-7q-90 11 -97 64q-1 10 -1 20q0 53 43 70q30 12 51 12q24 0 36 -16q17 -23 11 -45.5t-19 -30.5q-10 -6 -22 -6q-26 0 -61 28q-3 -10 -2 -18q0 -26 24 -38q14 -8 46 -11h6q29 0 50 28t21 61v8q-3 38 -37 68q-30 26 -79 26h-13q-58 -4 -82 -28t-32 -57 q-5 -19 -5 -37q0 -50 37 -94q60 -70 155 -70q12 0 25 1q72 7 114 54t58 98q12 37 12 74q0 85 -64 169q-26 36 -94 85t-146 106t-149 119t-102 127t-33 149z" />
<glyph unicode="t" horiz-adv-x="608" d="M-72 1184q69 6 228 16q-6 80 -13 141t-34 117t-59 86q-41 39 -102 56l6 38q57 -24 146 -24q31 0 65 3q135 11 223 55q-38 -107 -60 -462q104 6 150 16q-10 -12 -10 -39t6 -49q-51 6 -150 6q-9 -168 -9 -320q0 -360 49 -626q16 -70 56 -100t86 -31h3q44 0 83 31 q40 32 56 108l42 -16q-6 -48 -38 -97t-82 -83q-69 -47 -141 -47q-50 0 -101 23q-72 34 -104 88t-40 125q-5 41 -5 85q0 33 3 69q6 83 6 154t-1 142t-4 151q-3 92 -21 332q-161 -19 -232 -46l2 67q0 11 -4 31z" />
<glyph unicode="u" horiz-adv-x="968" d="M20 992l8 30q30 -6 66 -16t76 -16t85 -6t91 12q-58 -126 -72 -191q-26 -121 -26 -315q0 -295 138 -351q32 -13 70 -13q11 0 23 1q51 5 86 46t58 108q44 129 53 335q3 62 3 110q0 102 -12 148q-17 66 -41 95t-64 45l4 32h86q196 0 258 28q-65 -126 -106 -379 q-27 -164 -26 -297q0 -66 6 -125q22 -199 106 -199q49 0 70 62h30q-9 -87 -92 -126q-23 -11 -53 -11q-8 0 -17 1q-128 12 -154 248q-47 -126 -87.5 -179t-83.5 -80t-111 -27t-125 31t-95 83q-67 91 -67 225q0 16 1 33q6 100 28 203t27 194q1 14 1 28q0 74 -23 132 q-27 69 -119 101z" />
<glyph unicode="v" horiz-adv-x="906" d="M-62 1010l8 34q100 -18 194 -18q31 0 62 2q122 8 178 22l12 -36q-76 -5 -110 -87q-20 -47 -20 -109q0 -66 23 -150q92 -343 197 -554q38 94 97 268q105 306 117 385q8 48 7 83q0 22 -3 38q-8 42 -26 72q-29 48 -98 80v20q72 -8 182 -19q45 -4 95 -4q72 0 155 9l-2 -24 q-97 -26 -146 -91q-22 -29 -39 -79t-53 -158q-96 -289 -250 -734q-54 6 -97 6t-65 -2q-109 425 -163.5 618.5t-80.5 270.5t-75 114t-99 43z" />
<glyph unicode="w" horiz-adv-x="1566" d="M-30 1180l10 36q114 -8 180 -8q24 0 42 1q155 7 304 43l12 -38q-94 -42 -131 -100q-75 -118 -79 -332q-2 -74 -2 -137q0 -177 18 -262q26 -115 62 -165q34 -47 80 -47h6q50 3 88 62t70 149t53 196t29 202q4 52 4 95q0 136 -44 169q83 0 157.5 7t92.5 13q-46 -54 -57 -226 q-4 -56 -4 -108q1 -96 13 -178q18 -124 36 -189t45 -115q59 -110 153 -110q74 0 128 158q56 164 56 422q0 241 -58 336q-28 46 -67 67t-87 39l16 40q158 -43 350 -43q38 0 76 2q72 3 120 17l6 -36q-177 -38 -196 -328q-16 -205 -33 -301.5t-42 -189.5t-64 -168 q-86 -165 -219 -165h-6q-145 4 -232 199q-68 153 -88 383q-36 -212 -123 -357q-96 -161 -228 -161h-13q-166 7 -226 163q-32 83 -32 196q0 41 4 87q2 38 11 87t15 104q7 65 7 118q0 60 -9 106q-39 186 -204 267z" />
<glyph unicode="x" horiz-adv-x="904" d="M-112 108q176 65 316 270q91 136 174 266q-21 37 -68.5 136.5t-102.5 170.5t-107 111q-94 72 -176 72l18 64q71 -31 197 -31q117 0 281 27l8 -32q-18 -6 -37 -12t-30 -21t-11 -42t17 -65t43 -100t62 -140q50 78 89 140t55 87t16 45t-11 31q-18 18 -50 18q-7 0 -15 -1 l6 34q135 -10 270 -10t214 24l-2 -52q-129 -7 -231 -92q-43 -36 -97 -94q-110 -131 -194 -244q24 -48 48 -100t48 -102q60 -125 97 -194.5t74 -112.5t70 -63t63 -25t64 -11l-8 -48q-112 18 -237 18q-50 0 -101 -3q-54 -3 -94 -11l-6 40q18 6 34 8t27 12t11 31t-12 53t-29 70 t-39 86t-49 105t-53 115q-69 -98 -182 -296q-19 -37 -19 -65t19 -47q16 -16 38 -23t34 -13l-8 -36q-133 29 -271 29q-24 0 -49 -1q-54 -2 -100 -14z" />
<glyph unicode="y" horiz-adv-x="948" d="M30 970l22 40q22 -6 45 -13t58 -10q22 -2 49 -2q71 0 178 13q-51 -95 -87 -312q-24 -142 -24 -252q0 -178 62 -271q31 -47 85 -51h13q86 0 158 84q54 62 69 124q20 78 24 230q2 76 2 129t-2 84q-4 61 -15 99t-27 62q-28 41 -74 60l12 40q81 -35 225 -35h30q43 1 75 7 q-99 -204 -99 -570q0 -151 17 -328q8 -86 16 -162q14 -137 14 -242v-42q-4 -118 -33 -186t-77 -113q-97 -91 -246 -95h-11q-128 0 -215 92q-80 84 -80 201v11q4 112 86 175q74 56 162 56h4q90 -1 120 -49t30 -96t-11 -82t-32 -61q-47 -61 -115 -61q-102 0 -102 118 q0 56 26 88t60 33t51 -15t20 -36t-8 -36t-39 -15t-28 22t10 37q-42 -21 -42 -64.5t18 -63.5t42 -20t41 13t29 32q26 41 26 96t-41 87q-37 29 -73 29h-7q-39 -3 -67 -17t-52 -39q-54 -56 -54 -128q0 -39 16 -83q30 -82 119 -110q31 -10 71 -10q17 0 36 2q124 12 189 146 q61 126 61 331v25q-4 134 -7 201q-5 109 -5 169q-42 -142 -95 -204t-112 -92q-55 -28 -122 -28h-9q-72 2 -118 25t-79 63q-67 81 -80 186q-8 63 -8 117q0 37 4 70q9 81 21 171t17 162q2 26 2 48q0 42 -6 73q-16 89 -113 143z" />
<glyph unicode="z" horiz-adv-x="838" d="M30 766q42 168 42 258t-8 130l44 6q28 -52 88 -67q65 -16 151 -16q65 0 143 9q74 10 131 17t105 13q36 4 54 4h10q-70 -168 -199 -405q-227 -417 -277 -555q57 -1 106 -2q24 0 46 1q66 1 119 25q104 47 185 246l36 -10q-56 -220 -56 -393q0 -31 2 -61l-32 -10 q-29 67 -61 87q-50 29 -144 29q-27 0 -57 -2q-135 -10 -229.5 -15t-174.5 -11q72 130 154 250t157 234t139 222t100 214q-82 19 -160 19q-88 0 -171 -24q-194 -55 -205 -201z" />
<glyph unicode="{" horiz-adv-x="466" d="M62 694l2 64q30 -6 64 6t57 46t29 95t-19 156t-20 183t37 158q68 150 214 170l-2 -56q-20 6 -48 -14t-49 -62q-52 -103 -9 -238q70 -253 -17 -413q-31 -57 -85 -91q57 -78 70 -137q27 -115 -1.5 -241t-32.5 -200t8 -125q23 -97 108 -131l-22 -54q-50 30 -92 60t-69 77 q-59 103 -31 316q56 423 -92 431z" />
<glyph unicode="|" horiz-adv-x="386" d="M92 1434l130 44q-25 -559 21 -1418q5 -94 9 -136l-130 -10q16 1010 -30 1520z" />
<glyph unicode="}" horiz-adv-x="478" d="M20 -190l2 56q20 -6 48 14t49 61q53 104 11 239q-47 148 -26 288q22 152 128 216q-56 76 -71 135q-29 116 1 241.5t34 200.5t-9 126q-25 97 -109 131l22 54q50 -28 92 -59t69 -79q57 -101 30 -314q-53 -424 95 -432l-4 -64q-30 6 -64 -6t-57 -46t-29 -95t19 -156t20 -184 t-36 -158q-67 -149 -215 -169z" />
<glyph unicode="~" horiz-adv-x="912" d="M62 670q105 115 247 113q59 -1 124 -33t114 -39t87 1q61 13 116 68l80 -98q-76 -64 -172 -72t-186 44q-79 45 -180 18q-92 -25 -134 -96z" />
<glyph horiz-adv-x="522" />
<glyph unicode="&#xa1;" horiz-adv-x="390" d="M72 -42q41 49 72 296q32 253 20 502q-4 126 -6 205t-6 123t-11 62t-23 22q73 -11 166 6q-32 -53 -32 -126.5t5 -140.5t10 -143t8 -153t6 -158t7 -160t9 -142q11 -139 31 -155q-85 8 -213 -30q-27 -8 -43 -8zM83 1289q-15 35 1 72t63 57t88 10t51 -45t-10 -72t-61 -53 t-79 -10t-53 41z" />
<glyph unicode="&#xa2;" horiz-adv-x="778" d="M55 460q-80 226 17 475q72 186 204 288q68 53 146 65q17 58 46 224l96 -14l-46 -214q48 -12 74 -60l2 2q7 -14 14.5 -27t17.5 -20t21 0q25 16 47 119q14 -6 26 -6t18 2l-106 -438l-74 2q5 163 -6 222q-20 116 -72 120q-28 2 -70 -21t-84 -70q-97 -109 -134 -289 q-33 -170 10 -330q45 -166 154 -182q78 -12 155 43q73 52 103 133l68 -42q-10 -20 -32 -62t-62 -82q-100 -100 -238 -90l-68 -252l-78 24q56 179 56 248q-142 55 -205 232z" />
<glyph unicode="&#xa3;" horiz-adv-x="926" d="M0 638q2 32 0 52q34 4 91 4t127 4q-8 24 -15 48t-17 48q-50 120 -56 234t28 202t109 145t189 63q202 11 279 -95q49 -67 49 -181q0 -105 -79 -186q-87 -90 -205 -64q-80 16 -118 57t-48 88t1 92t26 66t34 37t42 26q52 23 97 -1q79 -40 52 -149q-12 -40 -46 -66t-74 -8 q-29 12 -24 52q5 38 44 42q16 2 24 -9t8 -25q35 27 16 80t-72 42q-39 -9 -61 -39q-37 -54 -30 -99.5t25 -69.5t44 -41q90 -59 186 -14q112 53 96 233q-14 138 -143 178q-45 14 -105 10q-136 -9 -204 -111q-79 -119 -12 -291q73 -207 90 -288q126 15 180 40l20 -98 q-62 8 -188 4q46 -262 -84 -410q174 65 340 -4q42 -18 81 -38t82 -16q103 10 147 94l30 -24q-8 -30 -34 -70t-72 -69q-112 -71 -280 1q-84 34 -160 34t-137 -19t-103 -47t-56 -48q-7 79 -57 129q-15 15 -31 17q87 53 148 164q75 137 54 294q-157 -22 -220 -40q-10 8 -8 40z " />
<glyph unicode="&#xa4;" horiz-adv-x="968" d="M72 1050l86 72l106 -148q115 98 238 94q82 -6 148 -48l106 126l72 -64l-106 -126q96 -109 96 -246q4 -133 -68 -248l96 -128l-78 -64l-94 112q-85 -60 -198.5 -58t-199.5 62l-94 -160l-94 82l114 146q-74 96 -76 224t76 234zM264 678q0 -155 103 -222q37 -24 91 -26 q103 -4 166 89q58 85 58 201q0 104 -62 173q-57 63 -120.5 63t-104.5 -29t-70 -71q-61 -88 -61 -178z" />
<glyph unicode="&#xa5;" horiz-adv-x="948" d="M-82 1320l6 36q120 -45 376 -8v-20q-34 0 -57 -24t-13 -47t31 -70t51 -108q79 -160 138 -249q103 129 145.5 231.5t44.5 156.5t-44 70l8 28q107 -27 196.5 -30.5t127.5 2.5v-32q-75 -21 -139 -88q-27 -28 -52 -72t-60 -97t-67 -104q-82 -131 -92 -189l217 7q93 3 115 1 q-8 -30 1 -51t1 -53q-113 15 -342 20q-10 -100 -2 -198q249 10 358 22l2 -58q-157 5 -356 -14q10 -82 23 -102t28 -31q42 -31 99 -43l-6 -34q-64 18 -310 -29q-58 -11 -90 -21l-6 32q38 18 81 70t57 146q-200 -23 -326 -50l-44 92q107 6 374 16q0 124 -6 202 q-215 -5 -302 -18q-16 12 -13 41t-3 47q132 -7 314 2q-2 10 -2 20t-2 20q-121 226 -185 320q-154 223 -275 258z" />
<glyph unicode="&#xa6;" horiz-adv-x="370" d="M92 1438l108 2q0 -292 32 -644l-122 2l8 263q0 166 -26 377zM94 560q40 -4 69 -6t47 10q0 -200 10 -388t18 -244l-122 -12q-8 132 -10 286q-3 271 -12 354z" />
<glyph unicode="&#xa7;" horiz-adv-x="742" d="M62 122q0 106 82 163q71 50 147.5 45.5t108.5 -44.5t29 -84t-14 -70t-29 -45q-41 -43 -86 -39q-24 0 -41 17t-22 38t4 40t37 24t38 -15t6 -42q52 9 56 80q2 32 -17 59t-53 27t-56 -10t-42 -29q-48 -46 -48 -123q-4 -84 57 -149q88 -95 201 -55q70 25 106 100q18 38 20 88 q4 100 -48 169t-121 115t-116 78t-87 73q-96 98 -96 205.5t56 190.5t146 111q-36 24 -73 49t-69 59q-70 75 -74 186q-4 132 97 233t227 89q110 -7 160 -85q32 -50 31 -96.5t-13 -75.5t-34 -52q-52 -54 -126 -47q-75 4 -93 57q-15 43 10 68t52 25t37 -19t4 -37t-24 -24 q22 -18 47 -18t42 11t27 29q20 36 20 81t-33 83t-90 38t-100 -22t-74 -56q-65 -71 -68 -152.5t55 -135.5t129 -93t116 -67t80 -63q77 -77 77 -187t-63 -199t-177 -125q10 -8 20 -15t43 -33t79 -64t80 -82q72 -93 68 -218q-4 -142 -105 -218q-93 -70 -211 -62q-126 8 -207 93 q-85 89 -85 227zM196 778q-4 -72 20 -114q38 -66 116 -132q84 34 126 122q16 34 22 102q11 121 -134 236q-54 -16 -101 -71t-49 -143z" />
<glyph unicode="&#xa8;" d="M386 1382q-6 28 16 55t63 32t63 -15t25 -48t-15 -54t-60 -32t-65 14t-27 48zM724 1428q22 30 65 40t66 -6t27 -43t-13 -54t-61 -38t-70 6q-57 37 -14 95z" />
<glyph unicode="&#xa9;" horiz-adv-x="1256" d="M62 952q11 270 207 414q171 126 412 115q109 -5 201 -63t155 -146t93 -194t21 -206t-56 -190t-122 -158q-165 -150 -385 -142q-88 2 -183 37t-173 104q-181 160 -170 429zM168 936q-8 -188 122 -333t311 -153q89 -4 169 31t142 103q137 150 114 400q-22 211 -183 328 q-69 50 -142 71t-142 18t-142 -41t-127 -101q-118 -138 -122 -323zM366 1006q26 128 99 205q67 71 137 71t104 -34t56 -70t47 -60t73 -4q-69 -50 -113 -118q-13 -20 -17 -34l-42 10q19 132 -25 194q-17 24 -47 24q-60 4 -99 -59t-50 -149t-12 -140t10 -97q25 -97 101 -101 q71 -7 150 55q61 48 88 107l36 -14q-6 -10 -28 -47t-60 -76q-98 -101 -214 -77q-129 22 -178 152q-42 112 -16 262z" />
<glyph unicode="&#xaa;" horiz-adv-x="654" d="M52 854q4 123 92 246q93 130 194 126q104 -7 142 -116q13 69 10 98l90 -30q-46 -111 -54 -343q-2 -55 0 -97t23 -71t47 -38t50 2t34 37l34 -26q-16 -52 -56 -77t-85 -20t-81 43t-42 114q-79 -125 -192 -128q-92 -4 -150 70q-64 82 -56 210zM172 852.5q8 -66.5 21 -99.5 q29 -73 81 -77q52 0 106 68q99 124 31 283q-51 120 -131 74q-51 -30 -84 -107q-32 -75 -24 -141.5z" />
<glyph unicode="&#xab;" horiz-adv-x="740" d="M20 426q113 127 225.5 263.5t136.5 168.5q-13 -93 -10 -144q-48 -56 -109 -117q-95 -95 -167 -173q42 -55 111 -126q128 -130 179 -152q-8 -84 -8 -122v-38q-42 42 -160 188q-125 155 -198 252zM270 426q113 127 225.5 263.5t136.5 168.5q-10 -70 -10 -144 q-42 -50 -105 -114q-147 -150 -169 -176q99 -128 219 -231q41 -35 69 -47q-8 -84 -8 -122v-38q-44 44 -122 142t-116 145q-73 90 -120 153z" />
<glyph unicode="&#xac;" horiz-adv-x="1178" d="M82 770q102 -6 263 -6q265 0 391 6t203 9t123 9q-6 -187 -1 -243.5t15 -88.5q-45 7 -79.5 0.5t-56.5 -10.5q15 129 2 212q-675 11 -844 -10q-5 69 -9.5 88.5t-6.5 33.5z" />
<glyph unicode="&#xad;" horiz-adv-x="950" d="M82 770q94 0 211 -1t226 1q253 5 319 24q0 -12 -5 -28t-9 -34q-11 -47 2 -82q-117 23 -483 4q-166 -9 -247 -32q-8 36 -4 74t-10 74z" />
<glyph unicode="&#xae;" horiz-adv-x="1256" d="M62 952q11 270 207 414q171 126 412 115q109 -5 201 -63t155 -146t93 -194t21 -206t-56 -190t-122 -158q-165 -150 -385 -142q-88 2 -183 37t-173 104q-181 160 -170 429zM168 936q-8 -188 122 -333t311 -153q89 -4 169 31t142 103q137 150 114 400q-22 211 -183 328 q-69 50 -142 71t-142 18t-142 -41t-127 -101q-118 -138 -122 -323zM326 1204q45 -22 113.5 -20t96.5 10q-17 -78 -24 -172q59 119 166 166q36 16 74 16q180 -4 176 -186q0 -75 -65 -127q-64 -51 -145 -43q-40 6 -66 40t-27 73t28 71t61 29q52 -5 52 -39q2 -16 -9 -30 t-34 -14t-31 22q-12 -12 -15 -32t10 -38t42 -18t47 12t29 31q19 33 19 64t-7 50t-20 35q-58 71 -149 4q-77 -57 -121 -159q-39 -90 -19 -173q9 -78 66 -94q14 -4 26 -10l-6 -34q-70 10 -138 10t-100 -18l-8 30q18 12 30 21t20 26q17 37 19.5 163t-4.5 171q-15 99 -83 127z " />
<glyph unicode="&#xaf;" d="M412 1428q44 7 163 19q199 19 265 31q-17 -57 16 -94q-156 0 -337 -46q-55 -14 -83 -30q-4 40 -6 66t-18 54z" />
<glyph unicode="&#xb0;" horiz-adv-x="358" d="M18 1434q22 70 83 112q64 44 131 21q32 -11 54 -35t34 -53q25 -60 17.5 -104.5t-21.5 -72.5t-36 -49q-49 -47 -124 -35q-77 13 -117 66q-44 58 -21 150zM105 1344q17 -38 41 -46q34 -10 67 17t42 63t-2 73t-42 43t-49 -1t-31 -21q-56 -60 -26 -128z" />
<glyph unicode="&#xb1;" horiz-adv-x="1038" d="M81 659q3 59 1 69q77 -14 200 -14h172q0 339 -34 350q36 -4 75 -9t97 19q-24 -82 -28 -358q114 5 183 10.5t112 8.5t67 7q-14 -70 -14 -130q-181 11 -348 8q0 -195 9 -253.5t11 -80.5q-68 0 -156 -22q26 84 26 354q-259 -10 -364 -46q-12 28 -9 87zM102 136q94 0 211 -1 t226 1q253 5 319 24q0 -12 -4 -28t-8 -34q-10 -44 0 -84q-125 25 -483 6q-166 -9 -247 -32q-8 34 -4 73t-10 75z" />
<glyph unicode="&#xb2;" horiz-adv-x="558" d="M58 1370q22 84 110 130q34 18 81 15t91 -27q104 -57 104 -190q0 -113 -76 -245q-68 -118 -178 -197q183 48 274 18q-14 -36 -14 -112q-203 79 -368 0q-2 32 -3 53t-11 33q30 30 77 73t91 98q107 133 110 269q0 78 -28 131t-83 55t-94 -46t-41 -90t4 -61t19 -33 q31 -33 75 -26q55 5 59 80q1 18 -3 32q-10 -16 -32 -18t-31 19t1 38t27 26q44 23 67 -23q10 -22 10 -48t-8 -53q-17 -57 -54.5 -79t-84.5 -16t-73 52q-39 61 -18 142z" />
<glyph unicode="&#xb3;" horiz-adv-x="612" d="M54 968q7 67 68 107q57 37 106 24q88 -23 92 -93q2 -46 -28 -81t-82 -35q-33 0 -49 32q-15 30 9 54q23 19 40 7q29 -23 12 -49q22 4 37 20t15 42t-23 45t-55 17t-67 -33t-33 -87q0 -48 30 -78q77 -77 173 -24q62 34 101 120q20 44 24 103t-11 88t-40 36q-48 13 -109 -29 l-54 82l188 168q-34 4 -76 4t-86 -6q-96 -13 -162 -56q4 24 8 44t5 39q2 44 -7 91q49 -33 209 -35q162 -2 241 31q-10 -60 -10 -104v-32l-198 -152q86 20 138 -5t56 -127q4 -112 -92 -219q-94 -105 -202 -105q-94 0 -141 74q-37 59 -27 122z" />
<glyph unicode="&#xb4;" d="M440 1306q250 199 316 232q46 -38 72 -98q-245 -128 -334 -210z" />
<glyph unicode="&#xb5;" horiz-adv-x="988" d="M-122 -420l2 32q20 6 47 13t53 26q61 45 82 159q50 288 71 830q3 78 3 141t-24 123t-104 88l8 30q28 -6 64 -16t76 -16t85 -6t93 12q-58 -116 -73 -186q-27 -126 -27 -320q0 -295 138 -351q42 -17 92 -12t86 46t60 108q43 120 52 335q8 193 -9 258.5t-41 94.5t-64 45 l2 32h87q194 0 261 28q-66 -132 -106 -379q-40 -246 -20 -422q22 -199 106 -199q24 0 43 19t25 43h30q-9 -86 -91 -126q-29 -14 -71 -10q-128 12 -154 248q-47 -126 -88 -179q-81 -107 -177 -107t-159 82q-4 -38 -8 -72q-14 -115 0 -205.5t29 -119.5t38 -48t59 -43l-4 -36 q-118 52 -235 61t-237 -1z" />
<glyph unicode="&#xb6;" horiz-adv-x="998" d="M52 1067q0 127 54 213t135 133t176 60t167 3t133 -9q154 3 259 45q-31 -43 -27 -162q1 -34 5 -64q-48 32 -146 48q-22 -231 3 -680q24 -432 65 -584q-51 11 -172 -18q6 52 6 145l-10 537q-6 144 -6 332.5t6 275.5q-48 0 -96 -6q-12 -145 0 -464q26 -692 26 -876 q-62 7 -172 -48q26 130 26 318t-2 266q-269 93 -384 318q-46 90 -46 217z" />
<glyph unicode="&#xb7;" horiz-adv-x="406" d="M82 721q0 41 32 73t77 35t78 -26t34 -71t-32 -73t-79 -34t-78 26t-32 70z" />
<glyph unicode="&#xb8;" d="M462 -202q88 -83 164 -64q26 6 49 36t28 61t-13 55t-72 19t-84 6t-42 35q-19 38 4 140l118 4q-41 -89 -12 -118q12 -12 43 -9t58 2t48 -11q44 -21 51 -96q12 -82 -46 -151t-133 -64t-112 51t-49 104z" />
<glyph unicode="&#xb9;" horiz-adv-x="438" d="M52 1310q87 63 134 174l76 12q-8 -102 22 -696q-59 25 -138 4q52 309 38 580q-63 -84 -120 -102z" />
<glyph unicode="&#xba;" horiz-adv-x="634" d="M64 958q30 115 125 185q101 74 205 35q87 -34 131 -147q58 -149 -6 -292q-21 -47 -56 -81q-79 -76 -189 -58q-114 17 -177 110q-70 104 -33 248zM151 861q6 -69 35.5 -108t55.5 -48t58 0t60 32q85 69 81 197q-2 79 -43 124q-22 24 -60 30t-70 -8t-55 -39 q-71 -77 -62 -180z" />
<glyph unicode="&#xbb;" horiz-adv-x="718" d="M62 698q8 80 8 122v38q31 -31 154 -183q129 -160 202 -257q-113 -127 -225.5 -263.5t-136.5 -168.5q14 72 10 144l276 290q-99 128 -219 231q-41 35 -69 47zM312 698q8 80 8 122v38q44 -44 122 -142t116 -145q73 -90 120 -153q-60 -67 -200 -233.5t-162 -198.5 q12 76 8 144l276 290q-99 128 -219 231q-41 35 -69 47z" />
<glyph unicode="&#xbc;" horiz-adv-x="1182" d="M-10 -46q234 380 361 603t197 343t132 233t107 195t70 128t27 46q46 -16 104 -16t92 12q-395 -511 -733 -1157q-94 -180 -179 -371h-80q-48 0 -98 -16zM84 1310q80 55 136 174l74 12q-9 -103 6.5 -360.5t19.5 -335.5q-65 23 -142 4q53 318 40 580q-71 -87 -122 -102z M534 408q112 95 193 234q29 50 43 102l156 10v-134q0 -64 1 -120t3 -108q99 19 144 54q-28 -88 -32 -178q-38 28 -110 38q7 -186 42 -286l-160 -24q15 130 28 314q-116 0 -298 -26q6 105 -10 124zM600 374q50 2 114 1t132 5q4 84 4 156t-6 126q-56 -105 -177 -230 q-35 -36 -67 -58z" />
<glyph unicode="&#xbd;" horiz-adv-x="1202" d="M-10 -46q234 380 361 603t197 343t132 233t107 195t70 128t27 46q46 -16 104 -16t92 12q-395 -511 -733 -1157q-94 -180 -179 -371h-80q-48 0 -98 -16zM84 1310q80 55 136 174l74 12q-9 -103 6.5 -360.5t19.5 -335.5q-65 23 -142 4q53 318 40 580q-71 -87 -122 -102z M651 527q-5 37 5 75q23 86 110 132q34 16 81 14t91 -26q104 -57 104 -190q0 -119 -75 -245q-72 -121 -177 -197q182 48 272 18q-14 -36 -14 -112q-192 75 -368 0q-2 30 -3 51t-11 35q30 30 77 73t91 98q107 133 110 269q2 76 -27 129t-84 55t-94 -45t-42 -99t24 -85t77 -25 q53 6 57 79q1 19 -3 33q-10 -16 -31 -18t-30 19t0 38t26 25q45 21 67 -24q10 -20 10 -47t-8 -53q-18 -59 -60 -84q-32 -16 -79 -10t-69 43t-27 74z" />
<glyph unicode="&#xbe;" horiz-adv-x="1244" d="M52 -46q234 380 361 603t196 343t132 233t108 195t70 128t27 46q46 -16 104 -16t90 12q-410 -543 -731 -1157q-94 -180 -179 -371h-81q-49 0 -97 -16zM82 954.5q8 49.5 26 76.5t45 44q58 37 107 24q86 -23 90 -93q2 -46 -27 -81t-81 -35q-35 0 -51 32q-15 31 3 47 q29 27 52 9t6 -44q22 4 38 20t16 42t-23 45t-56 17t-67 -33t-33 -70t11 -63t30 -43q68 -64 161 -13q62 34 101 120q20 44 24 103t-11 88t-40 36q-48 13 -109 -29l-52 82l186 168q-34 4 -76 4t-86 -6q-96 -13 -162 -56q4 24 8 44t5 39q2 44 -7 91q49 -33 211 -35 q158 -2 241 31q-12 -72 -13 -98t1 -38l-198 -152q86 20 138 -5t56 -127q4 -114 -90 -219t-204 -105q-94 0 -141 74q-37 59 -29 108.5zM596 408q116 98 192 234q28 50 44 102l156 10v-134q0 -64 1 -120t3 -108q98 20 142 54q-26 -97 -30 -178q-38 28 -110 38q7 -186 42 -286 l-162 -24q8 70 15 150t15 164q-116 0 -298 -26q6 105 -10 124zM662 374q50 2 114 1t132 5q4 84 4 156t-6 126q-56 -105 -177 -230q-35 -36 -67 -58z" />
<glyph unicode="&#xbf;" horiz-adv-x="970" d="M40 295q4 121 48 200t109 134q119 101 281 135q8 135 -8 233.5t-32 140.5q31 -8 87 -1q103 13 137 35q-32 -178 -37 -321t-1 -157q-40 4 -109 -11t-134 -60q-161 -112 -151 -319q7 -151 122 -213q92 -50 220 -35q126 13 202 91q79 81 60 205q-12 83 -100 133 q-91 53 -186 25q-73 -24 -102 -85q-29 -59 -9 -115q35 -101 131 -96q54 4 83 27t33 59t-23 53t-55 17t-48 -20q16 -4 28 -19t4 -33t-24 -24t-33 -1q-42 12 -35 67q8 38 44 56t62 19t47 -5t41 -19q46 -30 47 -81.5t-44 -93.5t-121 -42q-75 0 -134 42q-62 44 -66 105t13 106 t54 78q82 73 221 69q141 -4 225 -79q73 -65 73 -149t-36 -151t-100 -116q-140 -107 -340 -107q-199 0 -326 103q-122 99 -118 220zM426 1312q-2 46 30 80t81 36t86 -17t41 -64t-35 -78t-88 -39t-81 15t-34 67z" />
<glyph unicode="&#xc0;" horiz-adv-x="1148" d="M-246 740q-6 78 25 132t79 82t107 33t110 -14t87 -62t41 -121t-39 -118t-106 -42t-107 26t-49 92q-3 56 29 93q25 29 62 30q75 2 83 -67q2 -32 -18 -45t-42 -5t-25 30t7 40q-42 -9 -42 -52.5t20 -68.5t62 -23t59 16t27 32q16 29 16 68q0 80 -75 124q-31 18 -84 21 t-87 -16t-54 -49q-39 -59 -35.5 -117.5t32.5 -100.5t86 -69q126 -60 339 -33q258 655 148 855q-48 87 -142 91l8 52q202 -34 346 -32t208 16l2 -32q-66 -20 -82 -35q-34 -32 -23 -77.5t29 -141.5t44 -226q194 -969 384 -1077q44 -25 92 -3q79 46 84 180l30 6 q20 -78 -18 -178q-18 -48 -54 -85t-87 -43t-108 4t-114 58q-133 112 -201 422q-25 125 -40 194q-58 -4 -158 -10t-208 -14q-57 -240 -55.5 -300t11.5 -83q16 -38 92 -63l-2 -42q-77 18 -205 10q-247 -16 -325 -58l-16 68q42 18 71 25t51 20q46 27 84 121q23 50 120 284h-2 q-192 -17 -319 47q-142 72 -153 231zM278 1870q26 60 72 98q66 -33 316 -232l-54 -76q-89 82 -334 210zM424 578q157 23 322 34q-109 510 -128 690q-16 -64 -40 -148t-50 -179q-64 -235 -104 -397z" />
<glyph unicode="&#xc1;" horiz-adv-x="1148" d="M-246 740q-6 78 25 132t79 82t107 33t110 -14t87 -62t41 -121t-39 -118t-106 -42t-107 26t-49 92q-3 56 29 93q25 29 62 30q75 2 83 -67q2 -32 -18 -45t-42 -5t-25 30t7 40q-42 -9 -42 -52.5t20 -68.5t62 -23t59 16t27 32q16 29 16 68q0 80 -75 124q-31 18 -84 21 t-87 -16t-54 -49q-39 -59 -35.5 -117.5t32.5 -100.5t86 -69q126 -60 339 -33q258 655 148 855q-48 87 -142 91l8 52q202 -34 346 -32t208 16l2 -32q-66 -20 -82 -35q-34 -32 -23 -77.5t29 -141.5t44 -226q194 -969 384 -1077q44 -25 92 -3q79 46 84 180l30 6 q20 -78 -18 -178q-18 -48 -54 -85t-87 -43t-108 4t-114 58q-133 112 -201 422q-25 125 -40 194q-58 -4 -158 -10t-208 -14q-57 -240 -55.5 -300t11.5 -83q16 -38 92 -63l-2 -42q-77 18 -205 10q-247 -16 -325 -58l-16 68q42 18 71 25t51 20q46 27 84 121q23 50 120 284h-2 q-192 -17 -319 47q-142 72 -153 231zM424 578q157 23 322 34q-109 510 -128 690q-16 -64 -40 -148t-50 -179q-64 -235 -104 -397zM522 1716q250 199 316 232q46 -38 72 -98q-245 -128 -334 -210z" />
<glyph unicode="&#xc2;" horiz-adv-x="1148" d="M-246 740q-6 78 25 132t79 82t107 33t110 -14t87 -62t41 -121t-39 -118t-106 -42t-107 26t-49 92q-3 56 29 93q25 29 62 30q75 2 83 -67q2 -32 -18 -45t-42 -5t-25 30t7 40q-42 -9 -42 -52.5t20 -68.5t62 -23t59 16t27 32q16 29 16 68q0 80 -75 124q-31 18 -84 21 t-87 -16t-54 -49q-39 -59 -35.5 -117.5t32.5 -100.5t86 -69q126 -60 339 -33q258 655 148 855q-48 87 -142 91l8 52q202 -34 346 -32t208 16l2 -32q-66 -20 -82 -35q-34 -32 -23 -77.5t29 -141.5t44 -226q194 -969 384 -1077q44 -25 92 -3q79 46 84 180l30 6 q20 -78 -18 -178q-18 -48 -54 -85t-87 -43t-108 4t-114 58q-133 112 -201 422q-25 125 -40 194q-58 -4 -158 -10t-208 -14q-57 -240 -55.5 -300t11.5 -83q16 -38 92 -63l-2 -42q-77 18 -205 10q-247 -16 -325 -58l-16 68q42 18 71 25t51 20q46 27 84 121q23 50 120 284h-2 q-192 -17 -319 47q-142 72 -153 231zM314 1760q197 151 256 218q120 -128 262 -208l-36 -80q-97 33 -230 172l-192 -184zM424 578q157 23 322 34q-109 510 -128 690q-16 -64 -40 -148t-50 -179q-64 -235 -104 -397z" />
<glyph unicode="&#xc3;" horiz-adv-x="1148" d="M-246 740q-6 78 25 132t79 82t107 33t110 -14t87 -62t41 -121t-39 -118t-106 -42t-107 26t-49 92q-3 56 29 93q25 29 62 30q75 2 83 -67q2 -32 -18 -45t-42 -5t-25 30t7 40q-42 -9 -42 -52.5t20 -68.5t62 -23t59 16t27 32q16 29 16 68q0 80 -75 124q-31 18 -84 21 t-87 -16t-54 -49q-39 -59 -35.5 -117.5t32.5 -100.5t86 -69q126 -60 339 -33q258 655 148 855q-48 87 -142 91l8 52q202 -34 346 -32t208 16l2 -32q-66 -20 -82 -35q-34 -32 -23 -77.5t29 -141.5t44 -226q194 -969 384 -1077q44 -25 92 -3q79 46 84 180l30 6 q20 -78 -18 -178q-18 -48 -54 -85t-87 -43t-108 4t-114 58q-133 112 -201 422q-25 125 -40 194q-58 -4 -158 -10t-208 -14q-57 -240 -55.5 -300t11.5 -83q16 -38 92 -63l-2 -42q-77 18 -205 10q-247 -16 -325 -58l-16 68q42 18 71 25t51 20q46 27 84 121q23 50 120 284h-2 q-192 -17 -319 47q-142 72 -153 231zM302 1722q75 86 189 86q45 0 95 -24q128 -62 205 -7q21 15 37 31l62 -76q-58 -48 -131 -55t-143 35q-60 34 -138 13q-73 -19 -102 -73zM424 578q157 23 322 34q-109 510 -128 690q-16 -64 -40 -148t-50 -179q-64 -235 -104 -397z" />
<glyph unicode="&#xc4;" horiz-adv-x="1148" d="M-246 740q-6 78 25 132t79 82t107 33t110 -14t87 -62t41 -121t-39 -118t-106 -42t-107 26t-49 92q-3 56 29 93q25 29 62 30q75 2 83 -67q2 -32 -18 -45t-42 -5t-25 30t7 40q-42 -9 -42 -52.5t20 -68.5t62 -23t59 16t27 32q16 29 16 68q0 80 -75 124q-31 18 -84 21 t-87 -16t-54 -49q-39 -59 -35.5 -117.5t32.5 -100.5t86 -69q126 -60 339 -33q258 655 148 855q-48 87 -142 91l8 52q202 -34 346 -32t208 16l2 -32q-66 -20 -82 -35q-34 -32 -23 -77.5t29 -141.5t44 -226q194 -969 384 -1077q44 -25 92 -3q79 46 84 180l30 6 q20 -78 -18 -178q-18 -48 -54 -85t-87 -43t-108 4t-114 58q-133 112 -201 422q-25 125 -40 194q-58 -4 -158 -10t-208 -14q-57 -240 -55.5 -300t11.5 -83q16 -38 92 -63l-2 -42q-77 18 -205 10q-247 -16 -325 -58l-16 68q42 18 71 25t51 20q46 27 84 121q23 50 120 284h-2 q-192 -17 -319 47q-142 72 -153 231zM368 1730q-6 28 16 55t63 32t63 -15t25 -48t-15 -54t-60 -32t-65 14t-27 48zM424 578q157 23 322 34q-109 510 -128 690q-16 -64 -40 -148t-50 -179q-64 -235 -104 -397zM706 1776q22 30 65 40t66 -6t27 -43t-13 -54t-61 -38t-70 6 q-57 37 -14 95z" />
<glyph unicode="&#xc5;" horiz-adv-x="1148" d="M-246 740q-6 78 25 132t79 82t107 33t111 -14t88 -61t40 -121t-40 -119t-106 -42t-107 26t-49 92q-3 56 29 93q25 29 62 30q75 2 83 -67q2 -32 -18 -45t-42 -5t-25 30t7 40q-42 -9 -42 -52.5t20 -68.5t62 -23t59 16t27 32q16 29 16 68q0 80 -75 124q-31 18 -84 21 t-87 -17t-54 -50q-39 -59 -35.5 -116.5t32.5 -99.5t86 -69q126 -60 339 -33q258 655 148 855q-48 87 -142 91l8 52q36 -4 98 -12t136 -14q-46 24 -68 73t-2 119q17 69 82 112q68 45 134 22q88 -35 102 -150q8 -66 -20 -114t-60 -68q105 5 152 16l2 -32q-66 -20 -82 -35 q-34 -32 -23 -77.5t29 -141.5t44 -226q194 -969 384 -1077q44 -25 92 -3q79 46 84 180l30 6q20 -78 -18 -178q-18 -48 -54 -85t-87 -43t-108 4t-114 58q-133 112 -197 422l-44 194q-58 -4 -158 -10t-208 -14q-57 -240 -55.5 -300t11.5 -83q16 -38 92 -63l-2 -42 q-77 18 -205 10q-247 -16 -325 -58l-16 68q42 18 71 25t51 20q46 27 84 121q23 50 120 284h-2q-189 -17 -319 49q-142 72 -153 229zM424 578q157 23 322 34q-109 510 -128 690q-16 -64 -40 -148t-50 -179q-64 -235 -104 -397zM523.5 1638q16.5 -44 44.5 -52q32 -12 66 15 t42 63t-3 74t-49 44q-62 10 -94 -54q-23 -46 -6.5 -90z" />
<glyph unicode="&#xc6;" horiz-adv-x="1486" d="M-174 -30q72 46 155 183t141 288t98 276t73 245q75 273 79 362.5t-22 123.5t-96 42l8 46q208 -42 581 -57q260 -11 428 26q87 19 131 57q-61 -239 -34 -502h-56q0 60 -2 124t-28 114q-59 113 -270 88q-143 -18 -185 -58q-30 -29 -35 -100q-8 -80 -10 -247t2 -259 q176 26 240 94q32 34 48 80t32 104h52q-38 -268 -33 -504q1 -44 7 -68l-50 -12q-42 196 -290 186q9 -135 26.5 -246.5t44.5 -177.5t64 -94t83 -29t99 1t95 10t75 45q68 76 101 333l48 -16q-27 -151 -31 -204q-6 -105 15 -270q-120 8 -251 8t-216 -5t-161 -13 q-165 -17 -242 -56l-10 62q55 46 75 111q30 94 51 305q6 102 6 216q-182 -26 -362 -66q-95 -319 -80 -408q10 -84 82 -94l-2 -46q-174 10 -351 -24q-63 -12 -105 -30zM342 664q117 22 314 44q-10 234 -40 414t-42 232q-94 -240 -232 -690z" />
<glyph unicode="&#xc7;" horiz-adv-x="1204" d="M32 704q8 204 73 362t161 263t211 155t205 40t142 -40t90 -73q65 -73 106 -187q12 -12 26 -12q81 -4 122 252l56 -6q-122 -462 -110 -692q-78 31 -150 24q14 425 -127 580q-96 106 -259 33q-162 -72 -254 -345q-48 -142 -57 -304t5 -286t56 -229t114 -174t182 -67 q159 11 278 146q60 68 86 196l66 -40q-51 -166 -117.5 -255t-143.5 -139t-185 -50q-14 -38 -11 -71t44 -30t68 2t48 -11q44 -21 51.5 -77.5t-6.5 -96.5t-39 -72q-55 -70 -132 -65t-114 51t-49 104q137 -123 213 -27q54 68 17 116q-18 23 -72 18t-83 5t-41 33q-20 38 -2 133 q-211 52 -339 259q-144 233 -129 577z" />
<glyph unicode="&#xc8;" horiz-adv-x="1236" d="M-316 1194q14 140 152 224q163 99 448 66q221 -26 525 -9q125 7 251 29l-2 -244q0 -175 20 -238l-60 -8q0 225 -107 307q-123 95 -461 53q-40 -240 -40 -568q152 -34 233 23t97 209l48 -8q-37 -193 -26 -405q4 -79 20 -147l-40 -16q-14 62 -30 115t-49 86q-71 71 -253 25 q10 -243 26 -448q25 -50 68 -69q85 -37 216.5 -38t202.5 34t110 83q65 80 65 188l58 -6l-26 -412q-707 0 -1040 -74l-12 40q40 16 74 39t57 69q49 97 45 342q-7 396 -15.5 646t-10.5 320q-60 20 -144 19t-159 -30t-128 -88t-53 -153q0 -103 72 -159q66 -51 158 -43 q84 4 134 65q48 59 37 127t-63 102t-120 6q-28 -12 -52 -40t-21 -60t17 -49t33 -23q45 -14 79 24q-44 0 -44 40q0 28 29 39q33 13 55 -17q28 -37 -7 -85q-36 -50 -95 -44q-103 12 -108 117q-4 50 35 99t105 55t103 -14t58 -51q35 -52 35 -135q0 -71 -55 -128 q-68 -70 -198.5 -69t-194.5 83t-52 204zM380 1788q26 60 72 98q66 -33 316 -232l-54 -76q-89 82 -334 210z" />
<glyph unicode="&#xc9;" horiz-adv-x="1236" d="M-316 1194q14 140 152 224q163 99 448 66q221 -26 525 -9q125 7 251 29l-2 -244q0 -175 20 -238l-60 -8q0 225 -107 307q-123 95 -461 53q-40 -240 -40 -568q152 -34 233 23t97 209l48 -8q-37 -193 -26 -405q4 -79 20 -147l-40 -16q-14 62 -30 115t-49 86q-71 71 -253 25 q10 -243 26 -448q25 -50 68 -69q85 -37 216.5 -38t202.5 34t110 83q65 80 65 188l58 -6l-26 -412q-707 0 -1040 -74l-12 40q40 16 74 39t57 69q49 97 45 342q-7 396 -15.5 646t-10.5 320q-60 20 -144 19t-159 -30t-128 -88t-53 -153q0 -103 72 -159q66 -51 158 -43 q84 4 134 65q48 59 37 127t-63 102t-120 6q-28 -12 -52 -40t-21 -60t17 -49t33 -23q45 -14 79 24q-44 0 -44 40q0 28 29 39q33 13 55 -17q28 -37 -7 -85q-36 -50 -95 -44q-103 12 -108 117q-4 50 35 99t105 55t103 -14t58 -51q35 -52 35 -135q0 -71 -55 -128 q-68 -70 -198.5 -69t-194.5 83t-52 204zM522 1634q250 199 316 232q46 -38 72 -98q-245 -128 -334 -210z" />
<glyph unicode="&#xca;" horiz-adv-x="1236" d="M-316 1194q14 140 152 224q163 99 448 66q221 -26 525 -9q125 7 251 29l-2 -244q0 -175 20 -238l-60 -8q0 225 -107 307q-123 95 -461 53q-40 -240 -40 -568q152 -34 233 23t97 209l48 -8q-37 -193 -26 -405q4 -79 20 -147l-40 -16q-14 62 -30 115t-49 86q-71 71 -253 25 q10 -243 26 -448q25 -50 68 -69q85 -37 216.5 -38t202.5 34t110 83q65 80 65 188l58 -6l-26 -412q-707 0 -1040 -74l-12 40q40 16 74 39t57 69q49 97 45 342q-7 396 -15.5 646t-10.5 320q-60 20 -144 19t-159 -30t-128 -88t-53 -153q0 -103 72 -159q66 -51 158 -43 q84 4 134 65q48 59 37 127t-63 102t-120 6q-28 -12 -52 -40t-21 -60t17 -49t33 -23q45 -14 79 24q-44 0 -44 40q0 28 29 39q33 13 55 -17q28 -37 -7 -85q-36 -50 -95 -44q-103 12 -108 117q-4 50 35 99t105 55t103 -14t58 -51q35 -52 35 -135q0 -71 -55 -128 q-68 -70 -198.5 -69t-194.5 83t-52 204zM356 1678q197 151 256 218q120 -128 262 -208l-36 -80q-97 33 -230 172l-192 -184z" />
<glyph unicode="&#xcb;" horiz-adv-x="1236" d="M-316 1194q14 140 152 224q163 99 448 66q221 -26 525 -9q125 7 251 29l-2 -244q0 -175 20 -238l-60 -8q0 225 -107 307q-123 95 -461 53q-40 -240 -40 -568q152 -34 233 23t97 209l48 -8q-37 -193 -26 -405q4 -79 20 -147l-40 -16q-14 62 -30 115t-49 86q-71 71 -253 25 q10 -243 26 -448q25 -50 68 -69q85 -37 216.5 -38t202.5 34t110 83q65 80 65 188l58 -6l-26 -412q-707 0 -1040 -74l-12 40q40 16 74 39t57 69q49 97 45 342q-7 396 -15.5 646t-10.5 320q-60 20 -144 19t-159 -30t-128 -88t-53 -153q0 -103 72 -159q66 -51 158 -43 q84 4 134 65q48 59 37 127t-63 102t-120 6q-28 -12 -52 -40t-21 -60t17 -49t33 -23q45 -14 79 24q-44 0 -44 40q0 28 29 39q33 13 55 -17q28 -37 -7 -85q-36 -50 -95 -44q-103 12 -108 117q-4 50 35 99t105 55t103 -14t58 -51q35 -52 35 -135q0 -71 -55 -128 q-68 -70 -198.5 -69t-194.5 83t-52 204zM386 1668q-6 28 16 55t63 32t63 -15t25 -48t-15 -54t-60 -32t-65 14t-27 48zM724 1714q22 30 65 40t66 -6t27 -43t-13 -54t-61 -38t-70 6q-57 37 -14 95z" />
<glyph unicode="&#xcc;" horiz-adv-x="562" d="M-50 1808q26 60 72 98q66 -33 316 -232l-54 -76q-89 82 -334 210zM10 1434l10 44q167 -71 512 20l8 -28q-60 -27 -88 -58.5t-50 -76.5t-39 -115q-55 -228 -38 -724q10 -294 79 -416q36 -64 96 -78l-28 -36q-156 21 -348 -7q-62 -9 -96 -25l-8 26q26 24 52 49t45 67 q43 95 42 253.5t-2 286.5t-4 244q-8 294 -15 368q-10 101 -59 158q-21 24 -69 48z" />
<glyph unicode="&#xcd;" horiz-adv-x="562" d="M10 1434l10 44q167 -71 512 20l8 -28q-60 -27 -88 -58.5t-50 -76.5t-39 -115q-55 -228 -38 -724q10 -294 79 -416q36 -64 96 -78l-28 -36q-156 21 -348 -7q-62 -9 -96 -25l-8 26q26 24 52 49t45 67q43 95 42 253.5t-2 286.5t-4 244q-8 294 -15 368q-10 101 -59 158 q-21 24 -69 48zM156 1654q250 199 316 232q46 -38 72 -98q-245 -128 -334 -210z" />
<glyph unicode="&#xce;" horiz-adv-x="562" d="M8 1720q197 151 256 218q120 -128 262 -208l-36 -80q-97 33 -230 172l-192 -184zM10 1434l10 44q167 -71 512 20l8 -28q-60 -27 -88 -58.5t-50 -76.5t-39 -115q-55 -228 -38 -724q10 -294 79 -416q36 -64 96 -78l-28 -36q-156 21 -348 -7q-62 -9 -96 -25l-8 26 q26 24 52 49t45 67q43 95 42 253.5t-2 286.5t-4 244q-8 294 -15 368q-10 101 -59 158q-21 24 -69 48z" />
<glyph unicode="&#xcf;" horiz-adv-x="562" d="M10 1434l10 44q167 -71 512 20l8 -28q-60 -27 -88 -58.5t-50 -76.5t-39 -115q-55 -228 -38 -724q10 -294 79 -416q36 -64 96 -78l-28 -36q-156 21 -348 -7q-62 -9 -96 -25l-8 26q26 24 52 49t45 67q43 95 42 253.5t-2 286.5t-4 244q-8 294 -15 368q-10 101 -59 158 q-21 24 -69 48zM20 1668q-6 28 16 55t63 32t63 -15t25 -48t-15 -54t-60 -32t-65 14t-27 48zM358 1714q22 30 65 40t66 -6t27 -43t-13 -54t-61 -38t-70 6q-57 37 -14 95z" />
<glyph unicode="&#xd0;" horiz-adv-x="1252" d="M-204 1092q0 74 46 143t128 122q178 115 458 115q301 0 486 -141q239 -182 246 -597q4 -465 -280 -700q-138 -114 -334 -157t-440 -1v52q34 -6 65 -6t55 18q52 39 56 174q8 221 14 456q-74 -17 -126 -36q13 90 -4 144q39 -7 130 2q2 98 2 196t-4 187q-9 206 -26 293 q-140 5 -261 -64q-149 -85 -149 -224q0 -78 56 -123t117 -41t96 44t32 79t-15 65t-30 45q-40 42 -85 32q-69 -17 -55 -91q4 -24 24 -38t46 -4q-26 10 -28 37t22 36t42 -7t19 -40t-19 -46t-61 -26t-64 26t-25 71t25 79t68 42t70 -7t53 -34q52 -50 60 -123q9 -77 -40 -134 q-53 -62 -144 -66q-95 -4 -161 64q-65 67 -65 184zM438 590q2 -66 2 -125t4 -151q8 -192 54 -258q234 57 378 276q149 226 126 542q-25 296 -209 422q-128 88 -327 82q-28 -196 -28 -684q181 20 254 14q4 -28 3 -58t9 -54q-140 9 -266 -6z" />
<glyph unicode="&#xd1;" horiz-adv-x="1208" d="M-72 1542q38 -4 175 -4t271 24q105 -403 459 -1212q49 -112 89 -196q0 548 -34 914q-15 185 -42.5 250.5t-50.5 92.5t-53 45v40q155 -32 367 -26q67 2 131 12v-46q-78 -5 -132 -66q-66 -75 -66 -224l8 -588q0 -480 -18 -628l-130 14q-62 124 -136 289t-152 335 q-194 424 -296 590q-35 -365 14 -871q14 -145 32 -265q-359 -14 -386 -48l-10 42q36 20 67 34t55 44q49 62 60.5 276t14.5 439t-28 388t-72 233t-127 56zM340 1702q75 86 189 86q45 0 95 -24q128 -62 205 -7q21 15 37 31l62 -76q-58 -48 -131 -55t-143 35q-60 34 -138 13 q-73 -19 -102 -73z" />
<glyph unicode="&#xd2;" d="M30 711q4 211 67 354t155 233t195 132t198 42t192 -46t173 -135q164 -193 176 -521q6 -188 -46 -353t-139 -286t-199 -190t-209 -68t-195 51t-181 153t-137 263t-50 371zM200 563q4 -73 18 -149t39 -149t63 -131q86 -131 212 -138q131 -8 251 132q107 125 173 329 q62 193 54 361q-13 159 -36 226q0 -130 -81 -214q-31 -32 -91 -60t-124 -31t-114 19q-108 47 -124 184q-18 123 68 211q70 72 172 81q89 0 128 -60q18 -28 20 -77t-21 -84t-56 -55q-70 -42 -127 -14q-42 27 -22 75q8 19 25 31t42 6t32 -31t1 -47q40 10 59 42t18 66t-22 61 t-80 27t-115 -49t-58 -141q0 -129 84 -171q34 -17 91 -13t100 29t72 62q61 78 62 170.5t-21 149.5t-57 92q-60 60 -154.5 63.5t-176.5 -57.5t-148 -157t-109 -217t-47 -210t0 -162zM440 1768q26 60 72 98q66 -33 316 -232l-54 -76q-89 82 -334 210z" />
<glyph unicode="&#xd3;" d="M30 711q4 211 67 354t155 233t195 132t198 42t192 -46t173 -135q164 -193 176 -521q6 -188 -46 -353t-139 -286t-199 -190t-209 -68t-195 51t-181 153t-137 263t-50 371zM200 563q4 -73 18 -149t39 -149t63 -131q86 -131 212 -138q131 -8 251 132q107 125 173 329 q62 193 54 361q-13 159 -36 226q0 -130 -81 -214q-31 -32 -91 -60t-124 -31t-114 19q-108 47 -124 184q-18 123 68 211q70 72 172 81q89 0 128 -60q18 -28 20 -77t-21 -84t-56 -55q-70 -42 -127 -14q-42 27 -22 75q8 19 25 31t42 6t32 -31t1 -47q40 10 59 42t18 66t-22 61 t-80 27t-115 -49t-58 -141q0 -129 84 -171q34 -17 91 -13t100 29t72 62q61 78 62 170.5t-21 149.5t-57 92q-60 60 -154.5 63.5t-176.5 -57.5t-148 -157t-109 -217t-47 -210t0 -162zM502 1634q250 199 316 232q46 -38 72 -98q-245 -128 -334 -210z" />
<glyph unicode="&#xd4;" d="M30 711q4 211 67 354t155 233t195 132t198 42t192 -46t173 -135q164 -193 176 -521q6 -188 -46 -353t-139 -286t-199 -190t-209 -68t-195 51t-181 153t-137 263t-50 371zM200 563q4 -73 18 -149t39 -149t63 -131q86 -131 212 -138q131 -8 251 132q107 125 173 329 q62 193 54 361q-13 159 -36 226q0 -130 -81 -214q-31 -32 -91 -60t-124 -31t-114 19q-108 47 -124 184q-18 123 68 211q70 72 172 81q89 0 128 -60q18 -28 20 -77t-21 -84t-56 -55q-70 -42 -127 -14q-42 27 -22 75q8 19 25 31t42 6t32 -31t1 -47q40 10 59 42t18 66t-22 61 t-80 27t-115 -49t-58 -141q0 -129 84 -171q34 -17 91 -13t100 29t72 62q61 78 62 170.5t-21 149.5t-57 92q-60 60 -154.5 63.5t-176.5 -57.5t-148 -157t-109 -217t-47 -210t0 -162zM394 1658q197 151 256 218q120 -128 262 -208l-36 -80q-97 33 -230 172l-192 -184z" />
<glyph unicode="&#xd5;" d="M30 711q4 211 67 354t155 233t195 132t198 42t192 -46t173 -135q164 -193 176 -521q6 -188 -46 -353t-139 -286t-199 -190t-209 -68t-195 51t-181 153t-137 263t-50 371zM200 563q4 -73 18 -149t39 -149t63 -131q86 -131 212 -138q131 -8 251 132q107 125 173 329 q62 193 54 361q-13 159 -36 226q0 -130 -81 -214q-31 -32 -91 -60t-124 -31t-114 19q-108 47 -124 184q-18 123 68 211q70 72 172 81q89 0 128 -60q18 -28 20 -77t-21 -84t-56 -55q-70 -42 -127 -14q-42 27 -22 75q8 19 25 31t42 6t32 -31t1 -47q40 10 59 42t18 66t-22 61 t-80 27t-115 -49t-58 -141q0 -129 84 -171q34 -17 91 -13t100 29t72 62q61 78 62 170.5t-21 149.5t-57 92q-60 60 -154.5 63.5t-176.5 -57.5t-148 -157t-109 -217t-47 -210t0 -162zM380 1662q75 86 189 86q45 0 95 -24q128 -62 205 -7q21 15 37 31l62 -76q-58 -48 -131 -55 t-143 35q-60 34 -138 13q-73 -19 -102 -73z" />
<glyph unicode="&#xd6;" d="M30 711q4 211 67 354t155 233t195 132t198 42t192 -46t173 -135q164 -193 176 -521q6 -188 -46 -353t-139 -286t-199 -190t-209 -68t-195 51t-181 153t-137 263t-50 371zM200 563q4 -73 18 -149t39 -149t63 -131q86 -131 212 -138q131 -8 251 132q107 125 173 329 q62 193 54 361q-13 159 -36 226q0 -130 -81 -214q-31 -32 -91 -60t-124 -31t-114 19q-108 47 -124 184q-18 123 68 211q70 72 172 81q89 0 128 -60q18 -28 20 -77t-21 -84t-56 -55q-70 -42 -127 -14q-42 27 -22 75q8 19 25 31t42 6t32 -31t1 -47q40 10 59 42t18 66t-22 61 t-80 27t-115 -49t-58 -141q0 -129 84 -171q34 -17 91 -13t100 29t72 62q61 78 62 170.5t-21 149.5t-57 92q-60 60 -154.5 63.5t-176.5 -57.5t-148 -157t-109 -217t-47 -210t0 -162zM406 1648q-6 28 16 55t63 32t63 -15t25 -48t-15 -54t-60 -32t-65 14t-27 48zM744 1694 q22 30 65 40t66 -6t27 -43t-13 -54t-61 -38t-70 6q-57 37 -14 95z" />
<glyph unicode="&#xd7;" horiz-adv-x="804" d="M40 332q97 81 178.5 179.5t121.5 156.5q-107 164 -284 422q28 16 65 36t63 50q14 -60 98 -223t112 -209q212 329 236 418q61 -61 134 -94q-182 -193 -326 -396q86 -122 228 -261q38 -37 64 -57q-63 -27 -99.5 -63.5t-42.5 -50.5q-27 80 -98.5 192t-101.5 162 q-51 -73 -108.5 -161.5t-83.5 -128.5t-38 -64q-39 8 -75.5 42t-42.5 50z" />
<glyph unicode="&#xd8;" d="M30 720q4 248 112 435q88 152 240 242q127 75 255.5 75t244.5 -70q80 202 84 200q44 -16 100 -17t88 11q-102 -179 -158 -288q179 -196 190 -538q6 -188 -46 -353t-139 -286t-198 -190t-213 -68t-202 57q-40 -108 -64 -192q-116 0 -170 -18l130 286q-261 242 -254 714z M200 563q4 -73 18 -149t39 -149t63 -131q86 -131 212 -138q128 -11 251 132q107 125 173 329q63 197 53 356.5t-35 230.5q0 -130 -81 -214q-31 -32 -91 -60t-124 -31t-114 19q-108 47 -124 184q-18 123 68 211q70 72 172 81q89 0 128 -60q18 -28 20 -77t-21 -84t-56 -55 q-70 -42 -127 -14q-42 27 -22 75q8 19 25 31t42 6t32 -31t1 -47q40 10 59 42t18 66t-22 61t-80 27t-115 -49t-58 -141q0 -129 84 -171q34 -17 91 -13t100 29t72 62q61 78 62 170.5t-21 149.5t-57 92q-60 60 -154.5 63.5t-176.5 -57.5t-148 -157t-109 -217t-47 -210t0 -162z " />
<glyph unicode="&#xd9;" horiz-adv-x="1274" d="M-40 1422l8 42q48 -6 102 -15t115 -14q142 -12 263 9l-4 -46q-75 -25 -127 -292q-28 -145 -37.5 -341.5t-4.5 -295.5t25 -188t60 -155q86 -143 272 -124q217 21 241 475q9 167 -5 550q-8 218 -95 274q-39 25 -93 41l6 48q114 -12 239 -12t233 22l6 -34 q-135 -77 -142 -302q0 -405 40 -798q27 -232 107 -293q35 -27 71 -4t66 101l30 -20q-18 -90 -101 -139q-152 -90 -255 95q-38 68 -62 186q-49 -141 -103.5 -194.5t-122.5 -78.5t-170 -19q-246 14 -358 208t-62 565t26 540q-29 201 -168 209zM402 1726q26 60 72 98 q66 -33 316 -232l-54 -76q-89 82 -334 210z" />
<glyph unicode="&#xda;" horiz-adv-x="1274" d="M-40 1422l8 42q48 -6 102 -15t115 -14q142 -12 263 9l-4 -46q-75 -25 -127 -292q-28 -145 -37.5 -341.5t-4.5 -295.5t25 -188t60 -155q86 -143 272 -124q217 21 241 475q9 167 -5 550q-8 218 -95 274q-39 25 -93 41l6 48q114 -12 239 -12t233 22l6 -34 q-135 -77 -142 -302q0 -405 40 -798q27 -232 107 -293q35 -27 71 -4t66 101l30 -20q-18 -90 -101 -139q-152 -90 -255 95q-38 68 -62 186q-49 -141 -103.5 -194.5t-122.5 -78.5t-170 -19q-246 14 -358 208t-62 565t26 540q-29 201 -168 209zM522 1592q250 199 316 232 q46 -38 72 -98q-245 -128 -334 -210z" />
<glyph unicode="&#xdb;" horiz-adv-x="1274" d="M-40 1422l8 42q48 -6 102 -15t115 -14q142 -12 263 9l-4 -46q-75 -25 -127 -292q-28 -145 -37.5 -341.5t-4.5 -295.5t25 -188t60 -155q86 -143 272 -124q217 21 241 475q9 167 -5 550q-8 218 -95 274q-39 25 -93 41l6 48q114 -12 239 -12t233 22l6 -34 q-135 -77 -142 -302q0 -405 40 -798q27 -232 107 -293q35 -27 71 -4t66 101l30 -20q-18 -90 -101 -139q-152 -90 -255 95q-38 68 -62 186q-49 -141 -103.5 -194.5t-122.5 -78.5t-170 -19q-246 14 -358 208t-62 565t26 540q-29 201 -168 209zM336 1638q197 151 256 218 q120 -128 262 -208l-36 -80q-97 33 -230 172l-192 -184z" />
<glyph unicode="&#xdc;" horiz-adv-x="1274" d="M-40 1422l8 42q48 -6 102 -15t115 -14q142 -12 263 9l-4 -46q-75 -25 -127 -292q-28 -145 -37.5 -341.5t-4.5 -295.5t25 -188t60 -155q86 -143 272 -124q217 21 241 475q9 167 -5 550q-8 218 -95 274q-39 25 -93 41l6 48q114 -12 239 -12t233 22l6 -34 q-135 -77 -142 -302q0 -405 40 -798q27 -232 107 -293q35 -27 71 -4t66 101l30 -20q-18 -90 -101 -139q-152 -90 -255 95q-38 68 -62 186q-49 -141 -103.5 -194.5t-122.5 -78.5t-170 -19q-246 14 -358 208t-62 565t26 540q-29 201 -168 209zM368 1608q-6 28 16 55t63 32 t63 -15t25 -48t-15 -54t-60 -32t-65 14t-27 48zM706 1654q22 30 65 40t66 -6t27 -43t-13 -54t-61 -38t-70 6q-57 37 -14 95z" />
<glyph unicode="&#xdd;" horiz-adv-x="1198" d="M-30 1338l6 48q256 -43 496 30l-4 -46q-169 -50 -214 -394q-36 -274 -10 -376t80 -150t160 -41t181 79t120 175t63 221t11 213t-18 163t-30 116q-37 93 -119 124l20 42q181 -60 338 -35q56 9 92 37l4 -44q-120 -83 -159 -317q-28 -172 3 -384q38 -256 47 -359.5t9 -233.5 q0 -497 -219 -658q-87 -64 -205 -64t-184 29t-110 76q-86 92 -119 307q-27 174 -99 256q214 -46 310 -10q-95 -150 -54 -348q24 -108 92 -177q82 -85 202 -51q123 37 194 215q75 188 56 431q-14 140 -26 238t-18 168q-59 -133 -125.5 -198.5t-132.5 -98.5t-150 -33 q-152 0 -258 84q-93 75 -104 266q-7 109 0.5 268.5t-1.5 230.5t-28 110t-44 56t-53 35zM402 1654q250 199 316 232q46 -38 72 -98q-245 -128 -334 -210z" />
<glyph unicode="&#xde;" horiz-adv-x="1114" d="M10 1480l8 56q293 -49 472 -32q-24 -85 -52 -318q210 42 407 -31q153 -56 223 -205q36 -76 36 -179t-34 -177t-90 -128t-129 -89t-152 -55q-147 -37 -301 -28q9 -161 30 -214q52 -88 192 -98l-12 -56q-60 6 -133 6q-242 0 -393 -48q-2 16 -2 27t-6 35q50 27 70 54 q33 43 64 152q50 175 50 535q0 200 -14 457q-6 110 -38 189t-82 110t-114 37zM396 565q0 -115 9 -132t28 -17t58 2t91 13t108 33t103 62q105 89 101 250q-4 146 -97 228q-112 98 -315 98q-42 2 -51 -36t-13 -75t-4 -55t-4 -71q-14 -185 -14 -300z" />
<glyph unicode="&#xdf;" horiz-adv-x="1254" d="M-20 34q30 2 57 4t52 21q55 42 80 176q43 234 35 477q-68 -4 -124 -20q10 22 10 49t-4 43q35 -3 116 -8q-2 48 -4 97t-6 104t-4 131t9 151t33 143t67 118q93 108 277 82q169 -26 255 -121q75 -83 75 -189q0 -92 -69 -207l-51 -85q-24 -40 -30 -90t19 -112t70 -109t97 -89 t103 -81t92 -84t63 -100t30 -109q16 -109 -16 -182q-66 -166 -218 -223q-153 -57 -287 44q-65 49 -85 108q-40 119 16 197q40 50 78 58t72 8q71 0 122 -45q54 -47 42 -113q-11 -52 -59 -84q-46 -31 -79 -23q-90 19 -90 77q0 30 15 54t46 31t51 1t28 -19q15 -24 4.5 -44.5 t-23.5 -27.5q-31 -17 -79 31q-15 -32 7.5 -50t53.5 -25t58 20t28 65t-28 72t-86 38t-85 -16t-40 -51q-28 -71 13 -134t109 -83t113 -7t81 45t58 81t22 112t-31 118t-93 112t-131 124t-131 138t-79 120t-17 82t6 84t37 103t65 94t62 81t31 79t-10 77t-37 66q-52 63 -130 71 q-89 9 -168 -86q-91 -110 -110 -300q-33 -363 -18.5 -538.5t36.5 -288.5t38 -163t35 -80t44 -48t57 -38l-22 -34q-173 81 -400 74q-66 -2 -122 -12z" />
<glyph unicode="&#xe0;" horiz-adv-x="984" d="M84 326q15 145 124 217q97 64 246 51q90 -10 150 -53t92 -95q42 382 -112 533q-58 57 -143 56t-130 -26t-72 -59q-47 -59 -47 -124q0 -47 34 -80q64 -61 132 -50q50 8 78 50q22 33 22 64.5t-12 46.5t-28 23q-39 19 -72 -14q18 2 36 -7t18 -34t-18 -36t-40 -9t-40 19 t-18 52t29 59t71 24t81 -36t39 -100q0 -50 -33 -83q-63 -63 -153 -63t-150 67q-52 58 -52 131q0 32 20 81t63 93q106 108 263 108q242 0 334 -169t30 -503q-63 -351 19 -422q44 -39 91 -20q42 10 52 66l26 -10q-27 -117 -123 -151q-37 -13 -87 -1q-94 23 -120 168 q-76 -118 -193 -155q-47 -15 -113 -10t-125 40t-99 90q-86 118 -70 271zM247.5 287.5q10.5 -119.5 61.5 -175.5t139 -51q137 8 228 115q-2 72 6 152q-16 62 -65 115t-103 62t-103 0t-87 -36q-87 -62 -76.5 -181.5zM320 1422q26 60 72 98q66 -33 316 -232l-54 -76 q-89 82 -334 210z" />
<glyph unicode="&#xe1;" horiz-adv-x="984" d="M84 326q15 145 124 217q97 64 246 51q90 -10 150 -53t92 -95q42 382 -112 533q-58 57 -143 56t-130 -26t-72 -59q-47 -59 -47 -124q0 -47 34 -80q64 -61 132 -50q50 8 78 50q22 33 22 64.5t-12 46.5t-28 23q-39 19 -72 -14q18 2 36 -7t18 -34t-18 -36t-40 -9t-40 19 t-18 52t29 59t71 24t81 -36t39 -100q0 -50 -33 -83q-63 -63 -153 -63t-150 67q-52 58 -52 131q0 32 20 81t63 93q106 108 263 108q242 0 334 -169t30 -503q-63 -351 19 -422q44 -39 91 -20q42 10 52 66l26 -10q-27 -117 -123 -151q-37 -13 -87 -1q-94 23 -120 168 q-76 -118 -193 -155q-47 -15 -113 -10t-125 40t-99 90q-86 118 -70 271zM247.5 287.5q10.5 -119.5 61.5 -175.5t139 -51q137 8 228 115q-2 72 6 152q-16 62 -65 115t-103 62t-103 0t-87 -36q-87 -62 -76.5 -181.5zM402 1306q250 199 316 232q46 -38 72 -98 q-245 -128 -334 -210z" />
<glyph unicode="&#xe2;" horiz-adv-x="984" d="M84 326q15 145 124 217q97 64 246 51q90 -10 150 -53t92 -95q42 382 -112 533q-58 57 -143 56t-130 -26t-72 -59q-47 -59 -47 -124q0 -47 34 -80q64 -61 132 -50q50 8 78 50q22 33 22 64.5t-12 46.5t-28 23q-39 19 -72 -14q18 2 36 -7t18 -34t-18 -36t-40 -9t-40 19 t-18 52t29 59t71 24t81 -36t39 -100q0 -50 -33 -83q-63 -63 -153 -63t-150 67q-52 58 -52 131q0 32 20 81t63 93q106 108 263 108q242 0 334 -169t30 -503q-63 -351 19 -422q44 -39 91 -20q42 10 52 66l26 -10q-27 -117 -123 -151q-37 -13 -87 -1q-94 23 -120 168 q-76 -118 -193 -155q-47 -15 -113 -10t-125 40t-99 90q-86 118 -70 271zM232 1330q197 151 256 218q120 -128 262 -208l-36 -80q-97 33 -230 172l-192 -184zM247.5 287.5q10.5 -119.5 61.5 -175.5t139 -51q137 8 228 115q-2 72 6 152q-16 62 -65 115t-103 62t-103 0t-87 -36 q-87 -62 -76.5 -181.5z" />
<glyph unicode="&#xe3;" horiz-adv-x="984" d="M84 326q15 145 124 217q97 64 246 51q90 -10 150 -53t92 -95q42 382 -112 533q-58 57 -143 56t-130 -26t-72 -59q-47 -59 -47 -124q0 -47 34 -80q64 -61 132 -50q50 8 78 50q22 33 22 64.5t-12 46.5t-28 23q-39 19 -72 -14q18 2 36 -7t18 -34t-18 -36t-40 -9t-40 19 t-18 52t29 59t71 24t81 -36t39 -100q0 -50 -33 -83q-63 -63 -153 -63t-150 67q-52 58 -52 131q0 32 20 81t63 93q106 108 263 108q242 0 334 -169t30 -503q-63 -351 19 -422q44 -39 91 -20q42 10 52 66l26 -10q-27 -117 -123 -151q-37 -13 -87 -1q-94 23 -120 168 q-76 -118 -193 -155q-47 -15 -113 -10t-125 40t-99 90q-86 118 -70 271zM240 1316q75 86 189 86q45 0 95 -24q128 -62 205 -7q21 15 37 31l62 -76q-58 -48 -131 -55t-143 35q-60 34 -138 13q-73 -19 -102 -73zM247.5 287.5q10.5 -119.5 61.5 -175.5t139 -51q137 8 228 115 q-2 72 6 152q-16 62 -65 115t-103 62t-103 0t-87 -36q-87 -62 -76.5 -181.5z" />
<glyph unicode="&#xe4;" horiz-adv-x="984" d="M84 326q15 145 124 217q97 64 246 51q90 -10 150 -53t92 -95q42 382 -112 533q-58 57 -143 56t-130 -26t-72 -59q-47 -59 -47 -124q0 -47 34 -80q64 -61 132 -50q50 8 78 50q22 33 22 64.5t-12 46.5t-28 23q-39 19 -72 -14q18 2 36 -7t18 -34t-18 -36t-40 -9t-40 19 t-18 52t29 59t71 24t81 -36t39 -100q0 -50 -33 -83q-63 -63 -153 -63t-150 67q-52 58 -52 131q0 32 20 81t63 93q106 108 263 108q242 0 334 -169t30 -503q-63 -351 19 -422q44 -39 91 -20q42 10 52 66l26 -10q-27 -117 -123 -151q-37 -13 -87 -1q-94 23 -120 168 q-76 -118 -193 -155q-47 -15 -113 -10t-125 40t-99 90q-86 118 -70 271zM247.5 287.5q10.5 -119.5 61.5 -175.5t139 -51q137 8 228 115q-2 72 6 152q-16 62 -65 115t-103 62t-103 0t-87 -36q-87 -62 -76.5 -181.5zM266 1302q-6 28 16 55t63 32t63 -15t25 -48t-15 -54 t-60 -32t-65 14t-27 48zM604 1348q22 30 65 40t66 -6t27 -43t-13 -54t-61 -38t-70 6q-57 37 -14 95z" />
<glyph unicode="&#xe5;" horiz-adv-x="984" d="M84 328q16 143 124 215q97 64 246 51q90 -10 150 -53t92 -95q42 382 -112 533q-58 57 -143 56t-130 -26t-72 -59q-47 -59 -47 -124q0 -47 34 -80q64 -61 132 -50q50 8 78 50q22 33 22 64.5t-12 47.5t-28 23q-42 18 -72 -15q18 2 36 -7t18 -34t-18 -36t-40 -9t-40 19 t-18 52t29 59t71 24t81 -36t39 -100q0 -50 -33 -83q-63 -63 -153 -63t-150 67q-52 58 -52 131q0 32 20 79t61 92q98 107 255 111q-46 26 -71 75t-5 123q17 69 82 112q66 44 132 21q32 -11 54 -35t34 -53q46 -110 -18 -203q-26 -38 -72 -54q342 -84 238 -658 q-63 -351 19 -422q44 -39 91 -20q42 10 52 66l26 -10q-27 -117 -123 -151q-37 -13 -87 -1q-94 23 -120 168q-76 -118 -193 -155q-47 -15 -113 -10t-125 40t-99 90q-86 119 -70 273zM247.5 287q10.5 -119 61.5 -175t139 -51q137 8 228 115q-2 72 6 152q-17 62 -52 101 q-61 66 -115.5 76.5t-103.5 1.5t-87 -37q-87 -64 -76.5 -183zM454 1274q2 -18 9 -35q16 -38 44.5 -46.5t62.5 17.5t42 62t-2 74t-53 45t-69 -24t-31 -53t-3 -40z" />
<glyph unicode="&#xe6;" horiz-adv-x="1522" d="M20 264q-2 56 31 127t97 128t159 88q118 38 301 -10q34 -9 58 -19q2 56 3 130t-18 140q-45 155 -217 162q-188 7 -263 -73q-31 -33 -37 -69t0 -58t19 -42t37 -31t58 -11t75 14t60 30t28 31t9 29t-9 31q-19 35 -95 21q12 -18 3 -41t-33 -30q-51 -15 -68 19q-12 20 4 45 t50 40t64 19t57 -3q63 -16 81 -85q11 -55 -19 -91q-58 -73 -191 -77q-127 0 -180 85q-39 63 -5 151q37 96 167 138q107 35 281 4q203 -36 267 -190q50 113 145 185q108 82 243 59q143 -24 203 -199q32 -93 45 -297q-2 -48 -1 -116t13 -100q-186 0 -606 70q17 -156 92 -279 q81 -133 196 -137q85 -7 144 79q55 81 30 127q128 -25 286 -2q-24 -10 -67 -60t-103 -106q-155 -145 -300.5 -137.5t-241.5 68.5t-142 161q-73 -147 -244 -199q-62 -19 -143 -19t-141 24t-100 64q-78 78 -82 212zM240 212q22 -92 95 -131q39 -21 97 -18t97 29t64 65t40 86 t22 94q9 60 9 157q-72 43 -168 46.5t-146 -19.5t-78 -61q-69 -93 -32 -248zM832 546q171 -40 380 -46q24 54 39 140t10 168q-12 198 -119 216q-94 12 -182 -94q-135 -161 -128 -384z" />
<glyph unicode="&#xe7;" horiz-adv-x="1034" d="M78 638q23 211 144 340q112 120 278 128q99 3 264 -82q64 -34 98 -16t56 122l44 2l-10 -478l-48 -16q-17 131 -84 235q-92 143 -232 143q-161 0 -240 -144q-72 -133 -64 -337.5t84 -327.5t204 -123t223 95q39 39 61 82t24 71h48q-23 -127 -115 -223q-105 -110 -257 -121 q-31 -69 3 -90q13 -8 41 -6t56 1t49 -11q46 -22 51.5 -79t-8.5 -97t-39 -71q-56 -69 -131.5 -64t-113.5 51t-48 104q83 -83 164 -64q26 6 49 36t29 61t-13 55t-72 19t-82 5t-42 31t-13 53t8 72q-201 38 -301 238q-91 182 -65 406z" />
<glyph unicode="&#xe8;" horiz-adv-x="948" d="M82.5 320q-56.5 240 33.5 444.5t279 283.5q91 38 189 26t151 -60t75 -107q40 -107 17 -273q-5 -36 -10 -71t-5 -66t6 -51q-160 51 -248 63q-192 25 -336 -21q-6 -240 114 -396q68 -88 153 -92q41 -2 83 24q71 50 65 126q-3 40 -43 92l250 12q-47 -135 -103.5 -203.5 t-124.5 -106.5t-164 -33t-173 60q-152 109 -208.5 349zM240 568q234 29 394 2q60 125 56 263q-5 171 -130 189q-112 12 -205 -125q-90 -132 -115 -329zM320 1380q26 60 72 98q66 -33 316 -232l-54 -76q-89 82 -334 210z" />
<glyph unicode="&#xe9;" horiz-adv-x="948" d="M82.5 320q-56.5 240 33.5 444.5t279 283.5q91 38 189 26t151 -60t75 -107q40 -107 17 -273q-5 -36 -10 -71t-5 -66t6 -51q-160 51 -248 63q-192 25 -336 -21q-6 -240 114 -396q68 -88 153 -92q41 -2 83 24q71 50 65 126q-3 40 -43 92l250 12q-47 -135 -103.5 -203.5 t-124.5 -106.5t-164 -33t-173 60q-152 109 -208.5 349zM240 568q234 29 394 2q60 125 56 263q-5 171 -130 189q-112 12 -205 -125q-90 -132 -115 -329zM402 1246q250 199 316 232q46 -38 72 -98q-245 -128 -334 -210z" />
<glyph unicode="&#xea;" horiz-adv-x="948" d="M82.5 320q-56.5 240 33.5 444.5t279 283.5q91 38 189 26t151 -60t75 -107q40 -107 17 -273q-5 -36 -10 -71t-5 -66t6 -51q-160 51 -248 63q-192 25 -336 -21q-6 -240 114 -396q68 -88 153 -92q41 -2 83 24q71 50 65 126q-3 40 -43 92l250 12q-47 -135 -103.5 -203.5 t-124.5 -106.5t-164 -33t-173 60q-152 109 -208.5 349zM240 568q234 29 394 2q60 125 56 263q-5 171 -130 189q-112 12 -205 -125q-90 -132 -115 -329zM274 1292q197 151 256 218q120 -128 262 -208l-36 -80q-97 33 -230 172l-192 -184z" />
<glyph unicode="&#xeb;" horiz-adv-x="948" d="M82.5 320q-56.5 240 33.5 444.5t279 283.5q91 38 189 26t151 -60t75 -107q40 -107 17 -273q-5 -36 -10 -71t-5 -66t6 -51q-160 51 -248 63q-192 25 -336 -21q-6 -240 114 -396q68 -88 153 -92q41 -2 83 24q71 50 65 126q-3 40 -43 92l250 12q-47 -135 -103.5 -203.5 t-124.5 -106.5t-164 -33t-173 60q-152 109 -208.5 349zM240 568q234 29 394 2q60 125 56 263q-5 171 -130 189q-112 12 -205 -125q-90 -132 -115 -329zM306 1240q-6 28 16 55t63 32t63 -15t25 -48t-15 -54t-60 -32t-65 14t-27 48zM644 1286q22 30 65 40t66 -6t27 -43 t-13 -54t-61 -38t-70 6q-57 37 -14 95z" />
<glyph unicode="&#xec;" horiz-adv-x="506" d="M-50 1422q26 60 72 98q66 -33 316 -232l-54 -76q-89 82 -334 210zM30 10q82 28 122 94q20 30 26 62q44 204 44 389q0 300 -58 395q-47 78 -132 92l-2 32q60 -6 136 -6h56q24 -2 47 -3t46 -1t45 -4q-20 -240 -20 -418q-17 -306 10 -463q10 -59 27 -72t35 -21 q39 -17 112 -32l2 -34l-88 -1t-166.5 -4t-227.5 -29z" />
<glyph unicode="&#xed;" horiz-adv-x="506" d="M30 10q82 28 122 94q20 30 26 62q44 204 44 389q0 300 -58 395q-47 78 -132 92l-2 32q60 -6 136 -6h56q24 -2 47 -3t46 -1t45 -4q-20 -240 -20 -418q-17 -306 10 -463q10 -59 27 -72t35 -21q39 -17 112 -32l2 -34l-88 -1t-166.5 -4t-227.5 -29zM176 1306q250 199 316 232 q46 -38 72 -98q-245 -128 -334 -210z" />
<glyph unicode="&#xee;" horiz-adv-x="506" d="M-14 1330q197 151 256 218q120 -128 262 -208l-36 -80q-97 33 -230 172l-192 -184zM30 10q82 28 122 94q20 30 26 62q44 204 44 389q0 300 -58 395q-47 78 -132 92l-2 32q60 -6 136 -6h56q24 -2 47 -3t46 -1t45 -4q-20 -240 -20 -418q-17 -306 10 -463q10 -59 27 -72 t35 -21q39 -17 112 -32l2 -34l-88 -1t-166.5 -4t-227.5 -29z" />
<glyph unicode="&#xef;" horiz-adv-x="506" d="M20 1302q-6 28 16 55t63 32t63 -15t25 -48t-15 -54t-60 -32t-65 14t-27 48zM30 10q82 28 122 94q20 30 26 62q44 204 44 389q0 300 -58 395q-47 78 -132 92l-2 32q60 -6 136 -6h56q24 -2 47 -3t46 -1t45 -4q-20 -240 -20 -418q-17 -306 10 -463q10 -59 27 -72t35 -21 q39 -17 112 -32l2 -34l-88 -1t-166.5 -4t-227.5 -29zM358 1348q22 30 65 40t66 -6t27 -43t-13 -54t-61 -38t-70 6q-57 37 -14 95z" />
<glyph unicode="&#xf0;" horiz-adv-x="1004" d="M52 560q-7 254 134 414q60 68 134 102t141 37q139 6 259 -89q-35 120 -116 286q-155 -49 -226 -96q-14 28 -20 57t-24 55q143 38 228 64q-60 114 -122 210l24 34q67 -48 190 -214q215 67 256 96q4 -22 2 -52t20 -64q-93 -17 -230 -58q197 -314 218 -548q8 -84 8 -173 t-13 -174t-40 -162t-73 -137q-99 -129 -274 -140q-184 -13 -323 135q-149 158 -153 417zM224 638q-9 -217 76 -364q86 -151 246 -134q42 4 90 36t84 95t53 156t-3 218t-60 203t-87 121q-81 74 -179 69q-105 -7 -165 -129q-51 -103 -55 -271z" />
<glyph unicode="&#xf1;" horiz-adv-x="1034" d="M0 1058q259 24 316 52q-4 -64 -5 -127t-3 -119t-2 -110q52 160 169 281q126 131 263 123q116 -11 178 -181q48 -130 42 -271q-5 -83 -50.5 -186.5t-67.5 -163.5q-49 -133 -11 -251q19 -59 55 -91t85 -27t101 69l26 -22q-20 -34 -66 -67t-98 -33t-93 17t-74 54 q-73 82 -77 237q0 70 18 130t39 120t38 125t14 142t-22 124t-46 72q-49 45 -109 35t-116 -61q-118 -108 -174 -303q-27 -96 -28.5 -171t-3.5 -113t2 -64q0 -160 96 -176l-2 -36q-117 25 -267 -20q-53 -16 -97 -44l-14 28q30 24 53 43t40 49q36 64 48 213q27 363 7 587 q-10 104 -112 104q-26 0 -50 -2zM240 1316q75 86 189 86q45 0 95 -24q128 -62 205 -7q21 15 37 31l62 -76q-58 -48 -131 -55t-143 35q-60 34 -138 13q-73 -19 -102 -73z" />
<glyph unicode="&#xf2;" horiz-adv-x="974" d="M52 560q-7 254 134 414q117 132 284 139q76 3 158 -33t148 -108q148 -161 148 -410q0 -250 -121 -404q-108 -137 -275 -150q-184 -13 -323 135q-149 158 -153 417zM224 638q-9 -217 76 -364q42 -74 106 -108t123 -28t107 38t84 95q86 150 50 375q-35 223 -147 325 q-79 73 -179 67q-105 -7 -165 -129q-51 -103 -55 -271zM298 1422q26 60 72 98q66 -33 316 -232l-54 -76q-89 82 -334 210z" />
<glyph unicode="&#xf3;" horiz-adv-x="974" d="M52 560q-7 254 134 414q117 132 284 139q76 3 158 -33t148 -108q148 -161 148 -410q0 -250 -121 -404q-108 -137 -275 -150q-184 -13 -323 135q-149 158 -153 417zM224 638q-9 -217 76 -364q42 -74 106 -108t123 -28t107 38t84 95q86 150 50 375q-35 223 -147 325 q-79 73 -179 67q-105 -7 -165 -129q-51 -103 -55 -271zM360 1288q250 199 316 232q46 -38 72 -98q-245 -128 -334 -210z" />
<glyph unicode="&#xf4;" horiz-adv-x="974" d="M52 560q-7 254 134 414q117 132 284 139q76 3 158 -33t148 -108q148 -161 148 -410q0 -250 -121 -404q-108 -137 -275 -150q-184 -13 -323 135q-149 158 -153 417zM224 638q-9 -217 76 -364q42 -74 106 -108t123 -28t107 38t84 95q86 150 50 375q-35 223 -147 325 q-79 73 -179 67q-105 -7 -165 -129q-51 -103 -55 -271zM232 1330q197 151 256 218q120 -128 262 -208l-36 -80q-97 33 -230 172l-192 -184z" />
<glyph unicode="&#xf5;" horiz-adv-x="974" d="M52 560q-7 254 134 414q117 132 284 139q76 3 158 -33t148 -108q148 -161 148 -410q0 -250 -121 -404q-108 -137 -275 -150q-184 -13 -323 135q-149 158 -153 417zM198 1316q75 86 189 86q45 0 95 -24q128 -62 205 -7q21 15 37 31l62 -76q-58 -48 -131 -55t-143 35 q-60 34 -138 13q-73 -19 -102 -73zM224 638q-9 -217 76 -364q42 -74 106 -108t123 -28t107 38t84 95q86 150 50 375q-35 223 -147 325q-79 73 -179 67q-105 -7 -165 -129q-51 -103 -55 -271z" />
<glyph unicode="&#xf6;" horiz-adv-x="974" d="M52 560q-7 254 134 414q117 132 284 139q76 3 158 -33t148 -108q148 -161 148 -410q0 -250 -121 -404q-108 -137 -275 -150q-184 -13 -323 135q-149 158 -153 417zM224 638q-9 -217 76 -364q42 -74 106 -108t123 -28t107 38t84 95q86 150 50 375q-35 223 -147 325 q-79 73 -179 67q-105 -7 -165 -129q-51 -103 -55 -271zM244 1302q-6 28 16 55t63 32t63 -15t25 -48t-15 -54t-60 -32t-65 14t-27 48zM582 1348q22 30 65 40t66 -6t27 -43t-13 -54t-61 -38t-70 6q-57 37 -14 95z" />
<glyph unicode="&#xf7;" horiz-adv-x="950" d="M82 770q94 0 211 -1t226 1q253 5 319 24q0 -12 -5 -28t-9 -34q-11 -47 2 -82q-117 23 -483 4q-166 -9 -247 -32q-8 36 -4 74t-10 74zM362 476q-12 34 12 64t57 41t70 3t49 -44q14 -34 -5 -63t-65 -43q-98 -30 -118 42zM370 920q-10 40 12 65t68 33t70 -12t28 -52t-20 -56 t-70 -28q-76 -6 -88 50z" />
<glyph unicode="&#xf8;" horiz-adv-x="974" d="M52 560q-7 254 134 414q60 68 134 102q177 81 344 -14q77 184 82 182q40 -14 93 -14t81 10q-64 -96 -158 -252q162 -162 162 -426q0 -250 -121 -404q-108 -137 -275 -150q-118 -6 -218 54q-26 -65 -70 -192q-30 0 -71 1t-85 -15l138 270q-162 154 -170 434zM224 638 q-9 -211 72 -358q85 173 326 690q-82 78 -178 68q-105 -7 -165 -129q-51 -103 -55 -271zM364 196q72 -64 182 -56q42 4 90 36t84 95q86 150 50 375q-19 139 -74 228q-198 -359 -332 -678z" />
<glyph unicode="&#xf9;" horiz-adv-x="968" d="M20 992l8 30q30 -6 66 -16t76 -16t85 -6t91 12q-58 -126 -72 -191q-26 -121 -26 -315q0 -295 138 -351q42 -17 93 -12t86 46t58 108q44 129 53 335q8 193 -9 258.5t-41 94.5t-64 45l4 32h86q196 0 258 28q-65 -126 -106 -379q-40 -246 -20 -422q22 -199 106 -199 q49 0 70 62h30q-9 -87 -92 -126q-30 -14 -70 -10q-128 12 -154 248q-47 -126 -87.5 -179t-83.5 -80t-111 -27t-125 31t-95 83q-75 102 -66 258q6 100 28 203t27 194t-22 160t-119 101zM176 1380q26 60 72 98q66 -33 316 -232l-54 -76q-89 82 -334 210z" />
<glyph unicode="&#xfa;" horiz-adv-x="968" d="M20 992l8 30q30 -6 66 -16t76 -16t85 -6t91 12q-58 -126 -72 -191q-26 -121 -26 -315q0 -295 138 -351q42 -17 93 -12t86 46t58 108q44 129 53 335q8 193 -9 258.5t-41 94.5t-64 45l4 32h86q196 0 258 28q-65 -126 -106 -379q-40 -246 -20 -422q22 -199 106 -199 q49 0 70 62h30q-9 -87 -92 -126q-30 -14 -70 -10q-128 12 -154 248q-47 -126 -87.5 -179t-83.5 -80t-111 -27t-125 31t-95 83q-75 102 -66 258q6 100 28 203t27 194t-22 160t-119 101zM360 1226q250 199 316 232q46 -38 72 -98q-245 -128 -334 -210z" />
<glyph unicode="&#xfb;" horiz-adv-x="968" d="M20 992l8 30q30 -6 66 -16t76 -16t85 -6t91 12q-58 -126 -72 -191q-26 -121 -26 -315q0 -295 138 -351q42 -17 93 -12t86 46t58 108q44 129 53 335q8 193 -9 258.5t-41 94.5t-64 45l4 32h86q196 0 258 28q-65 -126 -106 -379q-40 -246 -20 -422q22 -199 106 -199 q49 0 70 62h30q-9 -87 -92 -126q-30 -14 -70 -10q-128 12 -154 248q-47 -126 -87.5 -179t-83.5 -80t-111 -27t-125 31t-95 83q-75 102 -66 258q6 100 28 203t27 194t-22 160t-119 101zM212 1292q197 151 256 218q120 -128 262 -208l-36 -80q-97 33 -230 172l-192 -184z" />
<glyph unicode="&#xfc;" horiz-adv-x="968" d="M20 992l8 30q30 -6 66 -16t76 -16t85 -6t91 12q-58 -126 -72 -191q-26 -121 -26 -315q0 -295 138 -351q42 -17 93 -12t86 46t58 108q44 129 53 335q8 193 -9 258.5t-41 94.5t-64 45l4 32h86q196 0 258 28q-65 -126 -106 -379q-40 -246 -20 -422q22 -199 106 -199 q49 0 70 62h30q-9 -87 -92 -126q-30 -14 -70 -10q-128 12 -154 248q-47 -126 -87.5 -179t-83.5 -80t-111 -27t-125 31t-95 83q-75 102 -66 258q6 100 28 203t27 194t-22 160t-119 101zM224 1240q-6 28 16 55t63 32t63 -15t25 -48t-15 -54t-60 -32t-65 14t-27 48zM562 1286 q22 30 65 40t66 -6t27 -43t-13 -54t-61 -38t-70 6q-57 37 -14 95z" />
<glyph unicode="&#xfd;" horiz-adv-x="948" d="M30 970l22 40q22 -6 45 -13t58 -10q78 -7 227 11q-51 -95 -87 -312q-62 -372 38 -523q31 -47 85 -51q93 -7 171 84q54 62 69 124q20 78 24 230t0 213t-15 99t-27 62q-28 41 -74 60l12 40q89 -39 255 -35q43 1 75 7q-139 -288 -82 -898q8 -86 16 -162q17 -165 13.5 -283.5 t-32.5 -186.5t-77 -113q-97 -91 -246 -95q-135 -4 -226 92q-84 88 -80 212q4 112 86 175q75 57 165.5 56t120.5 -49t30 -96t-11 -82t-32 -61q-47 -61 -115 -61q-102 0 -102 118q0 56 26 88t60 33t51 -15t20 -36t-8 -36t-39 -15t-28 22t10 37q-42 -21 -42 -64.5t18 -63.5 t42 -20t41 13t29 32q26 41 26 96t-41 87t-80 29t-67 -17t-52 -39q-84 -87 -38 -211q30 -82 119 -110q45 -14 107 -8q124 12 189 146t61 356q-4 134 -7 201q-5 109 -5 169q-42 -142 -95 -204t-112 -92t-131 -28t-118 25t-79 63q-67 81 -80 186.5t-4 186.5t21 171t17 162 t-4 121q-16 89 -113 143zM402 1206q250 199 316 232q46 -38 72 -98q-245 -128 -334 -210z" />
<glyph unicode="&#xfe;" horiz-adv-x="1062" d="M-82 1454l12 50q262 -35 392 6q-8 -99 -11 -228l-5 -211q-2 -81 -2 -151q58 96 142 154t184 64q138 4 243 -142q119 -166 119 -452q0 -281 -155 -455q-67 -75 -149 -112t-159 -33q-142 7 -223 116q-4 -108 -4 -496q7 -170 190 -200l-16 -38q-190 29 -418 -17 q-64 -13 -92 -31l-18 34q40 26 72 50t57 71q67 126 78 557q5 193 5 403.5t-1 321.5t-2 200t1 157t-12 138t-45 123q-66 113 -183 121zM294 506q0 -252 101 -374q43 -52 110 -52t126 37t106 103t78 158t34 167t-4 127t-21 105t-37 102t-55 86q-71 82 -155.5 71.5 t-136.5 -68.5t-85 -137q-61 -146 -61 -325z" />
<glyph unicode="&#xff;" horiz-adv-x="948" d="M30 970l22 40q22 -6 45 -13t58 -10q78 -7 227 11q-51 -95 -87 -312q-62 -372 38 -523q31 -47 85 -51q93 -7 171 84q54 62 69 124q20 78 24 230t0 213t-15 99t-27 62q-28 41 -74 60l12 40q89 -39 255 -35q43 1 75 7q-139 -288 -82 -898q8 -86 16 -162q17 -165 13.5 -283.5 t-32.5 -186.5t-77 -113q-97 -91 -246 -95q-135 -4 -226 92q-84 88 -80 212q4 112 86 175q75 57 165.5 56t120.5 -49t30 -96t-11 -82t-32 -61q-47 -61 -115 -61q-102 0 -102 118q0 56 26 88t60 33t51 -15t20 -36t-8 -36t-39 -15t-28 22t10 37q-42 -21 -42 -64.5t18 -63.5 t42 -20t41 13t29 32q26 41 26 96t-41 87t-80 29t-67 -17t-52 -39q-84 -87 -38 -211q30 -82 119 -110q45 -14 107 -8q124 12 189 146t61 356q-4 134 -7 201q-5 109 -5 169q-42 -142 -95 -204t-112 -92t-131 -28t-118 25t-79 63q-67 81 -80 186.5t-4 186.5t21 171t17 162 t-4 121q-16 89 -113 143zM244 1200q-6 28 16 55t63 32t63 -15t25 -48t-15 -54t-60 -32t-65 14t-27 48zM582 1246q22 30 65 40t66 -6t27 -43t-13 -54t-61 -38t-70 6q-57 37 -14 95z" />
<glyph unicode="&#x152;" horiz-adv-x="1792" d="M72 656q-2 204 54 352t137 246t171 148t172 60t174 -30t138 -148q0 138 -16 176q160 -8 251 -8t179 3t167 12q180 21 231 61q-56 -135 -64 -397q-2 -69 0 -117l-54 -4q-4 60 -12 123t-35 113q-62 114 -216.5 100t-222.5 -40q-65 -277 -68 -572q132 -4 192 40 q75 56 124 220l50 6q-42 -271 4 -534l-48 -18q-48 116 -125 156t-197 6q9 -324 40 -494q96 -4 193 4t163 26t108 67t52 113t16 148l54 -8q-8 -92 -8 -201q0 -195 12 -279q-166 42 -543 15q-162 -11 -215 -29q41 59 28 196q-72 -153 -232 -207q-62 -21 -150 -18t-180 51 t-164 139q-160 202 -160 523zM264 702q19 -314 170 -499q66 -81 144 -115t147 -14t111 95t64 177q44 205 26 406.5t-61 319.5t-68 156t-53 66t-63 46t-76 24t-88 -9t-97 -57t-88 -119q-86 -175 -68 -477z" />
<glyph unicode="&#x153;" horiz-adv-x="1654" d="M87 724q89 217 284 310q101 48 226 39t195 -67t94 -120q78 169 257 231q61 21 144 21t146 -43t98 -107q69 -126 45 -274l-13 -78q-11 -66 -11 -87t4 -43q-191 24 -586 -22q8 -97 64 -222q61 -125 162 -162q94 -34 142 14q43 49 17 141q-7 25 -19 41q119 -24 240 -10 q-61 -193 -216 -273q-60 -31 -129 -31t-128 23t-110 63q-112 88 -151 212q-64 -117 -134 -172.5t-139 -83.5t-164 -23t-171 57t-124 129q-147 235 -23 537zM210 442q-6 -164 51 -244t145 -86q163 -11 267 119q83 104 125 284q30 128 29 246.5t-48 185.5t-130 71t-161 -45 t-138 -131q-132 -180 -140 -400zM968 570q117 29 384 38q49 163 15 323q-15 71 -46 116t-70 42t-85 -35t-88 -95q-103 -154 -110 -389z" />
<glyph unicode="&#x178;" horiz-adv-x="1198" d="M-30 1338l6 48q256 -43 496 30l-4 -46q-169 -50 -214 -394q-36 -274 -10 -376t80 -150t160 -41t181 79t120 175t63 221t11 213t-18 163t-30 116q-37 93 -119 124l20 42q181 -60 338 -35q56 9 92 37l4 -44q-120 -83 -159 -317q-28 -172 3 -384q38 -256 47 -359.5t9 -233.5 q0 -497 -219 -658q-87 -64 -205 -64t-184 29t-110 76q-86 92 -119 307q-27 174 -99 256q214 -46 310 -10q-95 -150 -54 -348q24 -108 92 -177q82 -85 202 -51q123 37 194 215q75 188 56 431q-14 140 -26 238t-18 168q-59 -133 -125.5 -198.5t-132.5 -98.5t-150 -33 q-152 0 -258 84q-93 75 -104 266q-7 109 0.5 268.5t-1.5 230.5t-28 110t-44 56t-53 35zM306 1668q-6 28 16 55t63 32t63 -15t25 -48t-15 -54t-60 -32t-65 14t-27 48zM644 1714q22 30 65 40t66 -6t27 -43t-13 -54t-61 -38t-70 6q-57 37 -14 95z" />
<glyph unicode="&#x2c6;" d="M374 1310q197 151 256 218q120 -128 262 -208l-36 -80q-97 33 -230 172l-192 -184z" />
<glyph unicode="&#x2dc;" d="M340 1354q75 86 189 86q45 0 95 -24q128 -62 205 -7q21 15 37 31l62 -76q-58 -48 -131 -55t-143 35q-60 34 -138 13q-73 -19 -102 -73z" />
<glyph unicode="&#x2000;" horiz-adv-x="989" />
<glyph unicode="&#x2001;" horiz-adv-x="1978" />
<glyph unicode="&#x2002;" horiz-adv-x="989" />
<glyph unicode="&#x2003;" horiz-adv-x="1978" />
<glyph unicode="&#x2004;" horiz-adv-x="659" />
<glyph unicode="&#x2005;" horiz-adv-x="494" />
<glyph unicode="&#x2006;" horiz-adv-x="329" />
<glyph unicode="&#x2007;" horiz-adv-x="329" />
<glyph unicode="&#x2008;" horiz-adv-x="247" />
<glyph unicode="&#x2009;" horiz-adv-x="395" />
<glyph unicode="&#x200a;" horiz-adv-x="109" />
<glyph unicode="&#x2010;" horiz-adv-x="950" d="M82 770q94 0 211 -1t226 1q253 5 319 24q0 -12 -5 -28t-9 -34q-11 -47 2 -82q-117 23 -483 4q-166 -9 -247 -32q-8 36 -4 74t-10 74z" />
<glyph unicode="&#x2011;" horiz-adv-x="950" d="M82 770q94 0 211 -1t226 1q253 5 319 24q0 -12 -5 -28t-9 -34q-11 -47 2 -82q-117 23 -483 4q-166 -9 -247 -32q-8 36 -4 74t-10 74z" />
<glyph unicode="&#x2012;" horiz-adv-x="950" d="M82 770q94 0 211 -1t226 1q253 5 319 24q0 -12 -5 -28t-9 -34q-11 -47 2 -82q-117 23 -483 4q-166 -9 -247 -32q-8 36 -4 74t-10 74z" />
<glyph unicode="&#x2013;" horiz-adv-x="950" d="M82 770q94 0 211 -1t226 1q253 5 319 24q0 -12 -5 -28t-9 -34q-11 -47 2 -82q-117 23 -483 4q-166 -9 -247 -32q-8 36 -4 74t-10 74z" />
<glyph unicode="&#x2014;" horiz-adv-x="1514" d="M82 788q108 0 237 -1t262 0t262 2t239 4q242 7 318 21q0 -12 -8 -28t-15 -34q-17 -45 1 -82q-201 24 -840 4q-290 -9 -432 -32q-6 18 -6 37v52q0 33 -18 57z" />
<glyph unicode="&#x2018;" horiz-adv-x="324" d="M43 1267q5 41 26 76q49 82 155 93l14 -50q-30 -8 -64 -28t-44 -68l30 6q46 2 79 -26t33 -70t-32 -73t-77 -34t-76 24t-40 68t-4 82z" />
<glyph unicode="&#x2019;" horiz-adv-x="324" d="M52 1328q0 42 32 73t77 34t75 -24t39 -67t4 -81t-26 -76q-49 -82 -153 -93l-14 48q93 21 108 98q-14 -8 -32 -8q-46 -4 -78 25t-32 71z" />
<glyph unicode="&#x201a;" horiz-adv-x="324" d="M52 79q0 43 32 73t77 33t75 -23t39 -67t4 -82t-26 -76q-49 -82 -153 -93l-14 50q93 21 108 96q-16 -6 -32 -6q-46 -4 -78 24t-32 71z" />
<glyph unicode="&#x201c;" horiz-adv-x="586" d="M43 1267q5 41 26 76q49 82 155 93l14 -50q-30 -8 -64 -28t-44 -68l30 6q46 2 79 -26t33 -70t-32 -73t-77 -34t-76 24t-40 68t-4 82zM306 1267q6 41 27 76q49 82 153 93l16 -50q-30 -8 -65 -28t-45 -68q8 2 15 3t35 3t60 -26t32 -70t-31 -73t-77 -34t-76 24t-40 68t-4 82z " />
<glyph unicode="&#x201d;" horiz-adv-x="586" d="M52 1328q0 42 32 73t77 34t75 -24t39 -67t4 -81t-26 -76q-49 -82 -153 -93l-14 48q93 21 108 98q-14 -8 -32 -8q-46 -4 -78 25t-32 71zM314 1328q0 42 32 73t78 34t76 -24t39 -67t4 -81t-26 -76q-49 -82 -155 -93l-14 48q92 18 108 98q-14 -8 -30 -8q-46 -4 -78 25 t-34 71z" />
<glyph unicode="&#x201e;" horiz-adv-x="586" d="M52 79q0 43 32 73t77 33t75 -23t39 -67t4 -82t-26 -76q-49 -82 -153 -93l-14 50q93 21 108 96q-16 -6 -32 -6q-46 -4 -78 24t-32 71zM315 79q-1 43 31 73t78 33t76 -23t39 -67t4 -82t-26 -76q-49 -82 -155 -93l-14 50q93 19 108 96q-16 -6 -30 -6q-46 -4 -78 24t-33 71z " />
<glyph unicode="&#x2022;" horiz-adv-x="492" d="M70 756q17 68 81 112t131 21q32 -11 54 -35t35 -53q26 -59 18.5 -104t-21.5 -73t-37 -49q-51 -46 -125 -35q-76 13 -116 67q-46 61 -20 149z" />
<glyph unicode="&#x2026;" horiz-adv-x="1040" d="M40 65q0 41 32 73t78 35t78 -25t33 -71t-31 -73t-78 -33t-79 25t-33 69zM388 65q0 41 32 73t78 35t78 -25t33 -71t-31 -73t-78 -33t-79 25t-33 69zM736 65q0 41 32 73t78 35t78 -25t33 -71t-31 -73t-78 -33t-79 25t-33 69z" />
<glyph unicode="&#x202f;" horiz-adv-x="395" />
<glyph unicode="&#x2039;" horiz-adv-x="488" d="M20 426q113 127 225.5 263.5t136.5 168.5q-13 -93 -10 -144q-48 -56 -109 -117q-95 -95 -167 -173q42 -55 111 -126q128 -130 179 -152q-8 -84 -8 -122v-38q-42 42 -160 188q-125 155 -198 252z" />
<glyph unicode="&#x203a;" horiz-adv-x="466" d="M62 698q8 80 8 122v38q31 -31 154 -183q129 -160 202 -257q-113 -127 -225.5 -263.5t-136.5 -168.5q14 72 10 144l276 290q-99 128 -219 231q-41 35 -69 47z" />
<glyph unicode="&#x205f;" horiz-adv-x="494" />
<glyph unicode="&#x20ac;" horiz-adv-x="1166" d="M-2 602q104 -8 244 -8q-6 48 -6 85v60q0 23 4 45q-166 -16 -236 -8l-6 104q96 -8 254 -8q42 202 167 335q134 142 333 165q112 4 201 -31t147 -85l-28 -58q-225 140 -416 45q-121 -61 -196 -204q-38 -73 -56 -165q397 10 566 44l-36 -130q-123 19 -299.5 16.5 t-242.5 -6.5l-2 -22q-6 -94 0 -178q213 9 500 30l-32 -98q-138 2 -252 4t-208 2q22 -146 104 -233t246 -87q115 4 231 61q59 29 111 85l34 -40q-94 -135 -285 -195q-79 -25 -175 -19t-166 41t-120 91q-99 111 -128 294q-152 -6 -246 -44q-27 49 -6 112z" />
<glyph unicode="&#xe000;" horiz-adv-x="1200" d="M0 0v1200h1200v-1200h-1200z" />
<glyph unicode="&#xfb01;" horiz-adv-x="1112" d="M-10 34q30 2 57 4t52 21q88 67 113 426q8 113 4 229q-80 -9 -124 -22q10 20 10 76t-4 72q5 0 112 -16q-12 216 -12 288t9 147t33 143t67 118q93 108 277 82q169 -26 255 -121q75 -83 75 -187t-33 -166t-79 -95q-82 -59 -163 -54t-126 35t-67 73t-22 92t21 90 q49 95 157 91q58 -2 80 -39t20 -76t-28 -76t-69 -30t-58 29t-14 46t16 42t37 16t28 -12t4 -24q-5 -32 -28 -48q20 -8 44 3t28 48t-18 58t-56 20t-70 -29t-40 -91t32 -107t75 -45t72 11t63 40q73 68 80 182q4 78 -48 141t-130 71q-89 9 -168 -86q-91 -110 -110 -300 q-18 -215 -20 -296q160 -18 224 -14q70 0 205 9t213 23q-20 -280 -20 -414q-8 -126 -4 -211t48 -115q42 -25 140 -40l2 -30h-142q-34 0 -70 -3l-84 -7l-90 -9q-50 -5 -96 -11l-14 20q83 29 122 82q30 36 49 144t20 151q2 65 -18.5 153t-55.5 118t-67 44q-188 36 -364 24 q0 -233 46 -474q29 -155 57.5 -199.5t53.5 -62.5t57 -38l-22 -34q-173 81 -400 74q-66 -2 -122 -12z" />
<glyph unicode="&#xfb02;" horiz-adv-x="1134" d="M-10 34q30 2 57 4t52 21q55 42 80 176q45 243 37 475q-54 -4 -108 -18q10 22 10 49t-4 43q18 -2 43 -3t55 -3l-4 96t-6 103t-4 131t9 151t33 143t67 118q93 108 277 82q265 -43 335 -325q36 -147 34.5 -312t-3.5 -251t1 -172t10 -164q16 -183 49 -230q43 -58 144 -68 l2 -32q-44 6 -190 14h-82q-190 -9 -230 -14l-12 24q81 28 120 92q36 54 47 187t14 246t2 231t-7 222q-13 231 -32.5 274.5t-34.5 68.5t-34 46q-43 47 -88 51t-90 -17t-85 -69q-91 -110 -110 -300q-19 -187 -22 -332q92 -4 159 -4q115 0 151 8q-24 -82 -16 -114 q-218 44 -294 48q0 -209 46 -462q29 -155 57.5 -199.5t53.5 -62.5t57 -38l-22 -34q-173 81 -400 74q-66 -2 -122 -12z" />
</font>
</defs>
</svg>
